<svg id="coin_icon" xmlns="http://www.w3.org/2000/svg" xmlns:xlink="http://www.w3.org/1999/xlink" width="96.012" height="96.012" viewBox="0 0 508 508">
  <defs>
    <style>
      .cls-1 {
        fill: url(#linear-gradient);
      }

      .cls-2 {
        fill: #fbfbfb;
        fill-rule: evenodd;
      }
    </style>
    <linearGradient id="linear-gradient" x1="508" y1="508" x2="0" gradientUnits="userSpaceOnUse">
      <stop offset="0" stop-color="#NaNNaNNaN"/>
      <stop offset="1" stop-color="#0c4780"/>
    </linearGradient>
  </defs>
  <circle id="Ellipse_1_copy" data-name="Ellipse 1 copy" class="cls-1" cx="254" cy="254" r="254"/>
  <path class="cls-2" d="M431.846,218.655l8.717-44.642a3.965,3.965,0,0,0-4-4.949H377.416l9.222-47.226a3.964,3.964,0,0,0-4-4.948H326.429a10.514,10.514,0,0,0-9.873,8.228L296.683,226.883H227.241l20.513-105.045a3.964,3.964,0,0,0-4-4.948h-56.2a10.513,10.513,0,0,0-9.873,8.228l-8.582,43.946H113.584a10.514,10.514,0,0,0-9.873,8.228l-8.718,44.643a3.965,3.965,0,0,0,4,4.948h58.8L146.508,284.7H90.66a10.515,10.515,0,0,0-9.873,8.228L72.07,337.573a3.965,3.965,0,0,0,4,4.948h59.143L126,389.747a3.964,3.964,0,0,0,4,4.948H186.2a10.513,10.513,0,0,0,9.873-8.227L215.95,284.7h69.442L264.879,389.747a3.964,3.964,0,0,0,4,4.948h56.2a10.513,10.513,0,0,0,9.873-8.227l8.582-43.947h55.848a10.516,10.516,0,0,0,9.873-8.228l8.718-44.643a3.965,3.965,0,0,0-4.005-4.948H354.834l11.291-57.819h55.848A10.515,10.515,0,0,0,431.846,218.655Z" transform="translate(-2 -2)"/>
</svg>
