<svg width="21" height="21" viewBox="0 0 21 21" version="1.1" xmlns="http://www.w3.org/2000/svg" xmlns:xlink="http://www.w3.org/1999/xlink">
							<g id="Canvas" fill="none">
							<g id="Group">
							<g id="Group_2">
							<path id="Vector" d="M 20 10C 20 15.5251 15.5251 20 10 20C 4.47489 20 -5.57399e-06 15.5251 -5.57399e-06 10C -5.57399e-06 4.47488 4.47489 1.1148e-05 10 1.1148e-05C 15.5251 1.1148e-05 20 4.47488 20 10Z" transform="translate(0.29248 0.236328)" fill="#009531"></path>
							<path id="Vector_2" d="M 4.61187 0.547945C 4.61187 0.639269 4.61187 0.684932 4.61187 0.776256C 4.61187 0.730594 4.65752 0.684937 4.65752 0.639275C 4.65752 0.502289 4.65753 0.41097 4.61187 0.273984C 4.61187 0.228322 4.56622 0.182654 4.56622 0.182654C 4.52056 0.182654 4.52055 0.228305 4.47489 0.228305C 4.47489 0.273967 4.47489 0.273973 4.47489 0.319635C 4.56622 0.410959 4.56621 0.456621 4.61187 0.547945ZM 5.75342 0.456615C 5.75342 0.502278 5.84474 0.502283 5.89041 0.547945C 6.07305 0.776256 6.25572 1.00456 6.39271 1.27853C 6.39271 1.36985 6.43836 1.46118 6.43836 1.59817C 6.43836 1.64383 6.43836 1.68949 6.43836 1.73515C 6.48402 2.10045 6.52968 2.4201 6.57534 2.7854C 6.57534 2.92239 6.57535 3.10503 6.52969 3.24202C 6.52969 3.28768 6.52969 3.33334 6.52969 3.379C 6.57535 3.379 6.57535 3.33333 6.62102 3.28767C 6.71234 3.05936 6.71232 2.83105 6.71232 2.60274C 6.71232 2.37443 6.66667 2.14611 6.66667 1.96346C 6.66667 1.87213 6.66668 1.73517 6.62102 1.64385C 6.84933 2.00914 7.07762 2.32876 7.26027 2.73972C 7.30593 2.83104 7.30593 2.92237 7.39725 2.96803C 7.39725 2.96803 7.39727 2.96803 7.44293 2.96803C 7.44293 2.83104 7.39726 2.69408 7.3516 2.55709C 7.26027 2.32878 7.12328 2.10046 7.03196 1.91781C 6.94063 1.73516 6.80365 1.55251 6.66667 1.36986C 6.621 1.3242 6.66668 1.27855 6.62102 1.18723C 6.62102 1.05024 6.62102 0.958893 6.62102 0.821907C 6.62102 0.821907 6.66666 0.867586 6.71232 0.867586C 6.71232 0.867586 6.71232 0.867569 6.71232 0.821907C 6.71232 0.776245 6.71233 0.730588 6.66667 0.684926C 6.621 0.54794 6.57533 0.41097 6.48401 0.273984C 6.48401 0.228322 6.43836 0.228305 6.43836 0.228305C 6.39269 0.228305 6.39269 0.273984 6.34703 0.273984C 6.34703 0.319646 6.30138 0.365302 6.30138 0.410964C 6.30138 0.456627 6.30136 0.502283 6.34703 0.547945C 6.34703 0.684932 6.39271 0.821929 6.39271 0.958915C 6.39271 0.958915 6.39271 0.958899 6.39271 0.913236C 6.30138 0.821912 6.21006 0.684932 6.16439 0.547945C 6.21006 0.547945 6.25571 0.593607 6.30138 0.547945C 6.30138 0.502283 6.2557 0.456627 6.2557 0.410964C 6.16437 0.273978 6.02739 0.182648 5.89041 0.0913242C 5.84474 0.0456621 5.84474 0.0456733 5.79908 0.0456733C 5.79908 0.0456733 5.79908 0.0456621 5.79908 0.0913242C 5.79908 0.136986 5.79908 0.228322 5.79908 0.273984C 5.75341 0.41097 5.70776 0.456615 5.75342 0.456615ZM 6.84933 0.365286C 6.89499 0.410948 6.89497 0.456632 6.94063 0.502294C 6.98629 0.593618 6.94063 0.684932 6.94063 0.776256C 6.98629 0.776256 6.9863 0.730588 7.03196 0.684926C 7.07762 0.54794 7.07763 0.41097 6.98631 0.273984C 6.98631 0.228322 6.94064 0.182654 6.89498 0.182654C 6.84932 0.228316 6.80366 0.273973 6.84933 0.319635C 6.80366 0.319635 6.84933 0.365286 6.84933 0.365286ZM 3.83561 1.46119C 3.88127 1.46119 3.92693 1.41552 3.97259 1.36986C 4.01825 1.23287 4.06394 1.0959 4.1096 0.958915C 4.1096 0.913253 4.15524 0.867569 4.2009 0.821907C 4.2009 0.867569 4.2009 0.867574 4.2009 0.913236C 4.2009 1.05022 4.2009 1.18722 4.2009 1.32421C 4.2009 1.41553 4.24659 1.50685 4.33791 1.55252C 4.42923 1.59818 4.52055 1.59818 4.61187 1.55252C 4.74886 1.50685 4.88585 1.36986 4.93151 1.23288C 5.02284 1.3242 5.11417 1.41553 5.25115 1.46119C 5.34248 1.46119 5.4338 1.41553 5.47946 1.32421C 5.57079 1.18722 5.57077 1.05022 5.57077 0.913236C 5.57077 0.821912 5.52511 0.730582 5.52511 0.593596C 5.52511 0.547934 5.47946 0.502278 5.47946 0.456615C 5.52513 0.456615 5.5251 0.502294 5.57077 0.502294L 5.61644 0.502294C 5.61644 0.456632 5.61644 0.456627 5.61644 0.410964C 5.57078 0.31964 5.52513 0.228299 5.47946 0.136975C 5.4338 0.091313 5.4338 0.0913242 5.38813 0.0913242C 5.38813 0.136986 5.34245 0.136992 5.34245 0.182654C 5.34245 0.228316 5.25115 0.273973 5.25115 0.319635C 5.29681 0.365297 5.29679 0.456632 5.34245 0.502294C 5.38812 0.593618 5.43378 0.730599 5.43378 0.867586C 5.43378 0.95891 5.47945 1.05022 5.43378 1.14155C 5.43378 1.18721 5.38812 1.23288 5.34245 1.23288C 5.29679 1.23288 5.25114 1.18721 5.20547 1.14155C 5.11415 1.00456 5.11416 0.867591 5.06849 0.730605C 5.06849 0.593618 5.0685 0.456621 5.02284 0.319635C 5.02284 0.22831 4.97717 0.136997 4.93151 0.0456733C 4.93151 0.0456733 4.9315 0.0456733 4.88583 0.0456733C 4.84017 0.0913353 4.84019 0.136981 4.79453 0.228305C 4.74887 0.273967 4.79453 0.319624 4.79453 0.365286C 4.84019 0.547934 4.88585 0.684937 4.84018 0.867586C 4.84018 0.95891 4.84019 1.05023 4.79453 1.0959C 4.74887 1.18722 4.65753 1.23288 4.61187 1.23288C 4.56621 1.27854 4.47487 1.27854 4.42921 1.23288C 4.38355 1.18721 4.33791 1.09588 4.33791 1.05022C 4.33791 0.867569 4.33791 0.684932 4.33791 0.547945C 4.33791 0.502283 4.38357 0.45661 4.33791 0.365286C 4.33791 0.319624 4.29223 0.319646 4.29223 0.273984C 4.24657 0.273984 4.24656 0.273973 4.2009 0.319635C 4.10958 0.410959 4.06393 0.502289 4.01827 0.639275C 3.92695 0.776261 3.88127 0.913248 3.83561 1.0959C 3.83561 1.14156 3.78994 1.18723 3.74428 1.18723C 3.65296 1.14156 3.65296 1.09589 3.6073 1.00457C 3.6073 0.958904 3.6073 0.958899 3.6073 0.913236C 3.6073 0.821912 3.6073 0.68492 3.6073 0.593596C 3.6073 0.547934 3.65298 0.456627 3.65298 0.410964C 3.60732 0.502289 3.56165 0.639269 3.56165 0.776256C 3.51599 0.958904 3.60731 1.18722 3.69863 1.32421C 3.69863 1.36987 3.74429 1.46119 3.83561 1.46119ZM 5.84475 3.65296C 5.84475 3.69862 5.93608 3.69864 5.93608 3.69864C 6.07307 3.69864 6.16438 3.60729 6.21005 3.56163C 6.25571 3.51597 6.30138 3.51599 6.30138 3.47033C 6.25571 3.47033 6.2557 3.47033 6.2557 3.47033C 6.16437 3.51599 6.07306 3.56165 5.98174 3.60731L 5.98174 3.56163C 5.98174 3.47031 6.02739 3.42465 6.02739 3.33332C 5.98172 3.33332 5.89042 3.37899 5.84475 3.42465C 5.79909 3.42465 5.75342 3.47032 5.75342 3.51598C 5.79909 3.51598 5.84474 3.47033 5.89041 3.47033C 5.84474 3.51599 5.79909 3.56164 5.84475 3.65296ZM 3.56165 2.00914C 3.60731 2.10046 3.65297 2.19179 3.69863 2.32878C 3.74429 2.37444 3.74428 2.46575 3.74428 2.51141C 3.74428 2.60273 3.65296 2.64841 3.6073 2.69407C 3.51598 2.78539 3.37898 2.87671 3.28766 2.96803C 3.28766 2.92237 3.28766 2.87671 3.28766 2.83105C 3.28766 2.78539 3.28766 2.69405 3.28766 2.64839C 3.242 2.73971 3.19634 2.87671 3.15068 2.96803C 3.15068 3.01369 3.10503 3.05935 3.10503 3.10501C 3.10503 3.10501 3.10503 3.10503 3.10503 3.15069C 2.92238 3.28768 2.69406 3.42466 2.46575 3.51598C 2.37442 3.56164 2.28311 3.6073 2.19179 3.65296C 2.19179 3.65296 2.19179 3.65298 2.19179 3.69864C 2.23745 3.69864 2.23745 3.69864 2.28312 3.69864C 2.55709 3.60732 2.87671 3.51599 3.15068 3.379C 3.15068 3.47033 3.19635 3.6073 3.24201 3.65296C 3.33333 3.74429 3.47033 3.74429 3.56165 3.74429C 3.7443 3.69863 3.92694 3.60732 4.06392 3.47033C 4.20091 3.33334 4.29223 3.19635 4.42921 3.05936C 4.47487 3.19635 4.56622 3.33334 4.7032 3.47033C 4.88585 3.65298 5.15982 3.74429 5.38813 3.74429C 5.4338 3.74429 5.52511 3.7443 5.52511 3.69864C 5.52511 3.65298 5.57077 3.56164 5.57077 3.51598C 5.5251 3.47032 5.47946 3.47033 5.38813 3.47033C 5.29681 3.42467 5.25114 3.37898 5.20547 3.33332C 5.15981 3.28766 5.15981 3.242 5.20547 3.19634C 5.25114 3.15068 5.34246 3.10502 5.43378 3.05936C 5.6621 2.96804 5.89041 2.92236 6.11872 2.8767C 6.16438 2.8767 6.25571 2.87671 6.30138 2.83105C 6.34704 2.78539 6.34704 2.73971 6.39271 2.64839C 6.39271 2.60273 6.39271 2.60275 6.39271 2.55709C 6.34704 2.55709 6.25571 2.55709 6.21005 2.55709C 5.93607 2.55709 5.66211 2.55709 5.38813 2.55709C 5.29681 2.55709 5.15982 2.55709 5.06849 2.55709C 5.25114 2.46576 5.4338 2.37444 5.61644 2.32878C 5.66211 2.32878 5.70777 2.32878 5.70777 2.32878L 5.70777 2.2831C 5.7991 2.23744 5.93607 2.19178 5.98174 2.14612C 6.0274 2.10046 6.07307 2.00913 6.07307 1.91781C 6.07307 1.82648 5.98175 1.73516 5.93608 1.6895C 5.84476 1.64384 5.75343 1.55252 5.61644 1.55252C 5.57078 1.55252 5.47945 1.59818 5.43378 1.64385C 5.38812 1.73517 5.34247 1.78083 5.2968 1.87216C 5.2968 1.96348 5.29679 2.00914 5.34245 2.10047C 5.15981 2.14613 5.02282 2.19178 4.88583 2.2831C 4.79451 2.32876 4.74885 2.32877 4.65752 2.37443C 4.61186 2.42009 4.56622 2.51143 4.56622 2.55709C 4.56622 2.60275 4.52054 2.64841 4.52054 2.69407C 4.5662 2.73973 4.61187 2.73972 4.61187 2.73972C 4.7032 2.73972 4.84019 2.73972 4.93151 2.73972C 5.02284 2.73972 5.11415 2.78539 5.20547 2.83105C 5.20547 2.83105 5.25115 2.83104 5.25115 2.8767C 5.11417 2.92236 4.97717 3.0137 4.93151 3.15069C 4.88585 3.24201 4.93151 3.28768 4.93151 3.379C 4.79453 3.33334 4.61188 3.242 4.56622 3.10501C 4.4749 2.92236 4.47487 2.73974 4.42921 2.55709C 4.42921 2.4201 4.38356 2.32876 4.38356 2.19177C 4.3379 1.96346 4.24658 1.78083 4.15525 1.55252C 4.15525 1.50685 4.1096 1.4612 4.1096 1.41554C 4.06394 1.4612 4.06393 1.50685 4.01827 1.55252C 3.97261 1.59818 3.97259 1.68949 3.97259 1.73515C 4.01825 1.9178 4.10959 2.10045 4.15525 2.2831C 4.15525 2.37442 4.2009 2.42009 4.2009 2.51141C 4.2009 2.55707 4.24658 2.64841 4.24658 2.69407C 4.15526 2.87672 4.01828 3.05936 3.88129 3.19634C 3.78997 3.28767 3.65297 3.37899 3.47032 3.42465C 3.379 3.42465 3.33333 3.42466 3.24201 3.379C 3.19635 3.33334 3.19636 3.28767 3.19636 3.19634C 3.33334 3.10502 3.51598 3.01369 3.6073 2.8767C 3.69862 2.78538 3.78995 2.6484 3.83561 2.51141C 3.88127 2.42009 3.83561 2.28309 3.83561 2.19177C 3.83561 2.14611 3.83562 2.14613 3.78996 2.10047C 3.78996 2.05481 3.74428 1.96347 3.74428 1.91781C 3.78994 1.91781 3.78995 1.91781 3.83561 1.91781C 3.83561 1.87215 3.78994 1.78081 3.74428 1.73515C 3.69862 1.68949 3.65296 1.64383 3.6073 1.59817C 3.6073 1.59817 3.56163 1.55251 3.51597 1.59817C 3.47031 1.64383 3.47032 1.68949 3.47032 1.73515C 3.47032 1.78081 3.42467 1.8265 3.42467 1.87216C 3.51599 2.00914 3.56165 2.00914 3.56165 2.00914ZM 5.52511 1.87216C 5.61644 1.87216 5.66211 1.9178 5.70777 1.96346L 5.75342 2.00914C 5.6621 2.0548 5.61644 2.05479 5.52511 2.05479C 5.52511 2.00913 5.52511 1.91782 5.52511 1.87216ZM 5.02284 1.87216C 4.97718 1.8265 4.93151 1.82649 4.93151 1.78083C 4.93151 1.73517 4.9315 1.73516 4.88583 1.6895C 4.88583 1.73516 4.88583 1.78082 4.88583 1.82648L 4.88583 1.87216L 4.84018 1.87216C 4.79452 1.8265 4.79453 1.78082 4.79453 1.6895C 4.79453 1.6895 4.79453 1.68951 4.79453 1.64385C 4.74887 1.73517 4.74887 1.82648 4.79453 1.91781C 4.79453 1.96347 4.84017 1.96346 4.88583 1.96346C 4.9315 1.96346 4.93151 1.91782 4.93151 1.87216C 4.93151 1.87216 4.9315 1.87216 4.97716 1.87216C 4.97716 1.87216 5.02283 1.91781 5.06849 1.91781C 5.11416 1.91781 5.15982 1.87214 5.15982 1.82648C 5.15982 1.73515 5.15981 1.64383 5.11414 1.59817C 5.06848 1.64383 5.11414 1.6895 5.11414 1.78083C 5.06848 1.82649 5.0685 1.8265 5.02284 1.87216ZM 10.137 0.867586C 10.137 0.913248 10.137 0.958893 10.137 1.05022C 10.1826 0.958893 10.1827 0.913231 10.1827 0.821907C 10.1827 0.68492 10.137 0.502289 10.0457 0.410964C 10 0.410964 10 0.456632 9.95434 0.502294C 9.95434 0.547956 9.95434 0.547934 9.95434 0.593596C 10.0913 0.639258 10.0913 0.730599 10.137 0.867586ZM 8.99542 2.55709C 9.04109 2.55709 9.08675 2.51142 9.08675 2.46576C 9.13241 2.37443 9.08675 2.23744 8.99542 2.14612C 8.99542 2.14612 8.94978 2.10046 8.90412 2.14612C 8.85846 2.19178 8.85844 2.19179 8.85844 2.23745C 8.9041 2.28311 8.94976 2.32877 8.99542 2.37443C 8.99542 2.42009 8.94976 2.46576 8.99542 2.55709ZM 8.40182 1.36986C 8.44748 1.36986 8.44748 1.36986 8.40182 1.36986C 8.44748 1.36986 8.49315 1.32421 8.49315 1.32421C 8.53881 1.36987 8.58447 1.46119 8.63013 1.55252C 8.63013 1.59818 8.67581 1.59818 8.67581 1.64385C 8.72147 1.64385 8.72146 1.59817 8.72146 1.59817C 8.72146 1.50684 8.72146 1.36985 8.72146 1.27853C 8.72146 1.23287 8.72145 1.23289 8.76711 1.18723C 8.81277 1.18723 8.81278 1.23288 8.85844 1.23288L 8.85844 1.18723C 8.85844 1.14156 8.81279 1.14156 8.81279 1.0959C 8.81279 1.0959 8.81277 1.0959 8.76711 1.0959C 8.72145 1.14156 8.67579 1.18721 8.63013 1.23288C 8.63013 1.3242 8.63013 1.36986 8.63013 1.46119C 8.63013 1.50685 8.63013 1.55252 8.63013 1.55252C 8.58447 1.50685 8.58446 1.4612 8.5388 1.41554C 8.49314 1.36987 8.49314 1.27854 8.40182 1.23288L 8.35617 1.23288C 8.35617 1.23288 8.35617 1.27854 8.35617 1.32421C 8.40183 1.27854 8.40182 1.27853 8.40182 1.36986C 8.40182 1.3242 8.40182 1.36986 8.40182 1.36986ZM 6.98631 0.958915C 6.94065 1.00458 6.94063 1.05023 6.94063 1.0959C 6.94063 1.0959 6.94064 1.0959 6.89498 1.0959C 6.89498 1.05023 6.84933 1.05023 6.84933 1.00457C 6.84933 1.05023 6.84932 1.14156 6.89498 1.18723C 6.94064 1.18723 6.9863 1.14155 7.03196 1.14155C 7.07762 1.14155 7.07763 1.18723 7.12329 1.18723C 7.16895 1.18723 7.16896 1.18721 7.21462 1.14155C 7.21462 1.14155 7.21462 1.14156 7.21462 1.0959C 7.21462 1.00457 7.21462 0.95891 7.21462 0.867586C 7.21462 0.867586 7.2146 0.867586 7.16894 0.867586L 7.16894 0.913236C 7.16894 0.958899 7.16895 1.05022 7.12329 1.05022C 7.03196 1.05022 7.03197 1.00458 6.98631 0.958915C 7.03197 0.958915 6.98631 0.958915 6.98631 0.958915ZM 2.83104 2.92238C 2.92236 2.87672 2.92237 2.78538 2.92237 2.73972C 2.92237 2.69406 2.92237 2.60275 2.92237 2.55709C 2.92237 2.46576 2.7854 2.46575 2.73974 2.51141C 2.73974 2.55707 2.69408 2.60273 2.73974 2.64839C 2.7854 2.69405 2.83104 2.64839 2.83104 2.64839C 2.83104 2.69405 2.83104 2.73974 2.83104 2.7854C 2.83104 2.87672 2.83104 2.87672 2.83104 2.92238ZM 7.30595 0.547945C 7.35161 0.730594 7.35159 0.867569 7.39725 1.05022C 7.44291 1.32419 7.44292 1.55251 7.48858 1.82648C 7.48858 2.10045 7.53426 2.32877 7.53426 2.60274C 7.53426 2.69406 7.53426 2.78539 7.53426 2.92238C 7.53426 3.05937 7.44292 3.19635 7.3516 3.28767C 7.21461 3.42466 7.07761 3.56164 6.94063 3.65296C 6.8493 3.69862 6.75799 3.69863 6.66667 3.74429C 6.66667 3.74429 6.66667 3.74428 6.66667 3.78994C 6.71233 3.78994 6.80366 3.78994 6.84933 3.78994C 6.94065 3.78994 7.07761 3.78995 7.16894 3.74429C 7.30593 3.65297 7.39725 3.56164 7.48858 3.42465C 7.62557 3.28767 7.67124 3.10503 7.67124 2.92238C 7.67124 2.73973 7.67124 2.55707 7.67124 2.42008C 7.67124 2.14611 7.62556 1.87214 7.62556 1.59817C 7.5799 1.3242 7.53425 1.00458 7.57991 0.730605C 7.62557 0.730605 7.62558 0.776256 7.67124 0.776256C 7.67124 0.730594 7.67124 0.730588 7.67124 0.684926C 7.62558 0.593602 7.62557 0.502278 7.57991 0.456615C 7.57991 0.410953 7.57991 0.410948 7.57991 0.365286C 7.57991 0.319624 7.53426 0.273967 7.53426 0.228305L 7.48858 0.228305C 7.44292 0.273967 7.39726 0.319624 7.3516 0.365286C 7.30594 0.410948 7.30594 0.456632 7.3516 0.502294C 7.26027 0.502294 7.30595 0.547945 7.30595 0.547945ZM 8.90412 1.82648C 8.76713 1.96346 8.63014 2.05479 8.49315 2.14612C 8.44749 2.14612 8.4475 2.19179 8.4475 2.23745C 8.49316 2.23745 8.53882 2.19177 8.58448 2.19177C 8.67581 2.10045 8.8128 2.05478 8.90412 1.96346C 8.94978 1.9178 8.99544 1.91782 9.0411 1.87216C 9.0411 1.8265 9.0411 1.78081 9.0411 1.73515C 8.99544 1.73515 8.94978 1.78082 8.90412 1.82648ZM 9.45204 1.82648C 9.45204 1.73515 9.45204 1.64384 9.45204 1.55252C 9.58903 1.73517 9.68038 1.87214 9.81736 2.05479C 9.81736 2.10045 9.81735 2.10046 9.86301 2.14612C 9.86301 2.2831 9.90866 2.37442 9.90866 2.51141C 9.90866 2.6484 9.90866 2.78539 9.90866 2.92238C 9.90866 2.96804 9.90868 3.01369 9.95434 2.96803C 10 2.92237 9.99999 2.83106 9.99999 2.7854C 9.99999 2.69408 9.99999 2.64841 9.99999 2.55709C 9.99999 2.46576 9.99999 2.32877 9.99999 2.23745C 10.137 2.4201 10.2283 2.55707 10.3653 2.73972C 10.4109 2.78538 10.411 2.87672 10.4566 2.92238C 10.4566 2.83106 10.4566 2.73971 10.4566 2.64839C 10.411 2.46574 10.274 2.2831 10.1827 2.14612C 10.0913 2.05479 10.0457 1.9178 9.95434 1.82648C 9.95434 1.68949 9.90866 1.55251 9.90866 1.46119C 9.90866 1.27854 9.86301 0.913236 9.86301 0.913236C 9.86301 0.867574 9.86301 0.821929 9.86301 0.730605L 9.90866 0.730605C 9.90866 0.730605 9.90868 0.730605 9.95434 0.730605C 9.95434 0.684943 9.95434 0.684937 9.95434 0.639275C 9.90868 0.502289 9.90868 0.41097 9.86301 0.273984C 9.86301 0.228322 9.81735 0.136986 9.77168 0.0913242C 9.77168 0.0913242 9.72603 0.091313 9.72603 0.136975C 9.68037 0.182637 9.6347 0.22831 9.6347 0.319635C 9.6347 0.365297 9.6347 0.410953 9.6347 0.456615C 9.6347 0.684926 9.68035 0.913236 9.68035 1.14155C 9.68035 1.27853 9.72603 1.41553 9.72603 1.55252C 9.63471 1.41553 9.49772 1.27854 9.40639 1.0959C 9.40639 0.95891 9.4064 0.776261 9.36074 0.639275C 9.4064 0.639275 9.40638 0.639264 9.45204 0.684926C 9.45204 0.639264 9.45204 0.639258 9.45204 0.593596C 9.40638 0.45661 9.36073 0.319624 9.31506 0.136975L 9.26941 0.0913242C 9.22375 0.136986 9.17808 0.228322 9.17808 0.273984C 9.17808 0.319646 9.17807 0.410953 9.22373 0.456615C 9.22373 0.54794 9.22375 0.639281 9.26941 0.730605C 9.22375 0.639281 9.17808 0.593618 9.08675 0.502294L 9.13243 0.502294C 9.13243 0.502294 9.13243 0.502278 9.13243 0.456615C 9.13243 0.456615 9.13241 0.410964 9.08675 0.410964C 8.99543 0.31964 8.90412 0.228299 8.81279 0.136975C 8.76713 0.091313 8.76712 0.0913242 8.72146 0.0913242L 8.72146 0.136975C 8.72146 0.228299 8.72146 0.273961 8.72146 0.365286C 8.72146 0.45661 8.76713 0.502272 8.81279 0.593596C 8.94978 0.776245 9.08676 0.958899 9.26941 1.14155C 9.26941 1.18721 9.26941 1.27854 9.26941 1.32421C 9.26941 1.41553 9.26941 1.50684 9.26941 1.59817C 9.26941 1.9178 9.31506 2.2831 9.31506 2.60274C 9.31506 2.6484 9.31507 2.73974 9.26941 2.7854C 9.22375 2.83106 9.17809 2.83104 9.13243 2.8767C 9.08677 2.8767 9.04109 2.83105 8.99542 2.83105C 8.9041 2.73973 8.85845 2.6484 8.81279 2.60274C 8.76713 2.55708 8.72146 2.55708 8.72146 2.60274C 8.6758 2.6484 8.63014 2.69408 8.58448 2.7854C 8.49316 2.92239 8.40183 3.10503 8.35617 3.24202C 8.35617 3.28768 8.3105 3.33334 8.26484 3.379C 8.21918 3.42466 8.17351 3.42466 8.17351 3.379C 8.12785 3.33334 8.12784 3.28768 8.08218 3.24202C 8.12784 3.24202 8.12785 3.28767 8.17351 3.28767C 8.21917 3.28767 8.26483 3.242 8.31049 3.19634C 8.35615 3.05936 8.40184 2.96804 8.4475 2.83105C 8.4475 2.6484 8.40182 2.4201 8.40182 2.23745C 8.40182 2.10046 8.35617 2.00914 8.35617 1.87216C 8.35617 1.68951 8.31049 1.50684 8.31049 1.27853C 8.31049 1.14154 8.26484 1.00456 8.26484 0.821907C 8.3105 0.821907 8.40182 0.821918 8.40182 0.776256C 8.44748 0.730594 8.40183 0.639258 8.35617 0.593596C 8.31051 0.502272 8.26485 0.365308 8.21919 0.273984C 8.21919 0.228322 8.17352 0.136986 8.12786 0.0913242C 8.12786 0.0456621 8.08219 0.0456565 8.03653 -5.57399e-06C 7.99087 -5.57399e-06 7.94521 1.11487e-05 7.89955 0.0456733C 7.85389 0.136997 7.80823 0.18266 7.76257 0.273984C 7.76257 0.41097 7.76256 0.502289 7.80822 0.639275C 7.85388 0.730599 7.85387 0.867591 7.85387 0.958915C 7.89953 1.23289 7.9452 1.50685 7.9452 1.78083C 7.9452 1.96348 7.99088 2.14611 7.99088 2.2831C 8.03654 2.51141 8.08219 2.7854 8.03653 3.01371C 8.03653 3.05937 7.99088 3.10503 7.99088 3.15069C 7.99088 3.05937 7.9452 3.0137 7.9452 2.92238C 7.9452 2.83106 7.9452 2.73971 7.9452 2.64839C 7.89954 2.73971 7.89955 2.78538 7.89955 2.8767C 7.85389 3.01369 7.85389 3.19634 7.89955 3.33332C 7.94521 3.42465 8.03652 3.51597 8.08218 3.56163C 8.12784 3.60729 8.17353 3.65296 8.21919 3.65296C 8.26485 3.65296 8.31049 3.60731 8.31049 3.60731C 8.40182 3.47033 8.49314 3.33333 8.5388 3.19634C 8.58446 3.10502 8.63015 3.01369 8.67581 2.96803L 8.72146 2.92238C 8.76712 2.96804 8.76713 3.0137 8.81279 3.05936C 8.90412 3.15068 9.04111 3.19634 9.13243 3.19634C 9.22376 3.19634 9.31507 3.15068 9.40639 3.05936C 9.49772 2.92237 9.49772 2.78539 9.49772 2.60274C 9.49772 2.42009 9.45204 2.10045 9.45204 1.82648ZM 2.10046 3.42465C 2.19178 3.33333 2.2831 3.19635 2.32877 3.05936C 2.37443 2.87671 2.37442 2.69407 2.37442 2.46576C 2.37442 2.37443 2.37442 2.28311 2.37442 2.23745L 2.37442 2.19177C 2.37442 2.19177 2.37443 2.19177 2.4201 2.19177C 2.4201 2.28309 2.5114 2.32878 2.60273 2.32878C 2.69405 2.32878 2.73971 2.32876 2.83104 2.2831C 2.8767 2.2831 2.87671 2.23743 2.92237 2.19177C 2.92237 2.19177 2.92239 2.19177 2.96805 2.19177C 3.01371 2.23743 3.01369 2.23744 3.05935 2.2831C 3.10501 2.32876 3.19635 2.32878 3.24201 2.32878C 3.28767 2.32878 3.33334 2.28311 3.33334 2.23745C 3.379 2.14612 3.37899 2.05478 3.37899 1.96346C 3.37899 1.9178 3.379 1.82649 3.33334 1.78083C 3.28768 1.78083 3.24201 1.82648 3.24201 1.82648L 3.24201 1.87216C 3.24201 1.91782 3.24201 1.96348 3.24201 2.00914C 3.24201 2.0548 3.19634 2.10047 3.15068 2.10047C 3.10502 2.10047 3.05935 2.0548 3.05935 2.00914C 3.01369 1.91781 3.0137 1.82649 3.0137 1.78083C 3.0137 1.78083 3.01371 1.78083 2.96805 1.78083C 2.92239 1.87215 2.92238 1.96348 2.87672 2.00914C 2.83106 2.0548 2.7854 2.10047 2.73974 2.10047C 2.69408 2.10047 2.64841 2.0548 2.64841 2.00914C 2.60275 1.91781 2.64839 1.87215 2.60273 1.78083C 2.60273 1.73517 2.55708 1.73515 2.55708 1.73515C 2.51142 1.78081 2.46576 1.8265 2.4201 1.87216C 2.4201 1.68951 2.42008 1.55251 2.37442 1.36986C 2.37442 1.18721 2.32877 0.958904 2.32877 0.776256L 2.37442 0.821907C 2.42008 0.821907 2.4201 0.821918 2.4201 0.776256C 2.4201 0.730594 2.4201 0.684937 2.4201 0.639275C 2.37443 0.547951 2.32878 0.410959 2.28312 0.319635C 2.28312 0.273973 2.23744 0.182637 2.23744 0.136975C 2.19178 0.136975 2.19177 0.182654 2.14611 0.182654C 2.10045 0.228316 2.10047 0.273984 2.05481 0.273984C 2.05481 0.319646 2.05479 0.365302 2.10046 0.410964C 2.10046 0.456627 2.10046 0.456632 2.10046 0.502294C 2.10046 0.593618 2.10046 0.684932 2.10046 0.776256C 2.10046 0.821918 2.10046 0.821923 2.10046 0.867586C 2.10046 0.95891 2.10045 1.05022 2.14611 1.14155C 2.19177 1.41552 2.19178 1.68949 2.23744 1.96346C 2.19178 2.00912 2.14612 2.00913 2.10046 2.05479C 2.05479 1.96346 1.96346 1.87214 1.9178 1.82648C 1.87213 1.78082 1.82649 1.73517 1.73517 1.78083C 1.6895 1.78083 1.64385 1.8265 1.59818 1.87216C 1.55252 1.91782 1.50685 2.00914 1.50685 2.10047C 1.50685 2.19179 1.50685 2.23745 1.50685 2.32878C 1.50685 2.37444 1.50684 2.37443 1.55251 2.37443C 1.59817 2.42009 1.6895 2.42008 1.73517 2.42008C 1.82649 2.42008 1.87215 2.37444 1.96348 2.32878C 1.96348 2.37444 1.96348 2.42009 1.96348 2.51141C 1.96348 2.55707 1.9178 2.55708 1.9178 2.60274C 1.82647 2.69406 1.73516 2.78539 1.64384 2.83105C 1.55251 2.87671 1.46118 2.96803 1.3242 2.96803C 1.23287 2.96803 1.14155 2.96803 1.09588 2.8767C 1.00456 2.73971 0.958904 2.55707 0.958904 2.42008C 0.958904 2.37442 0.958904 2.32876 0.958904 2.2831C 0.913242 2.32876 0.913253 2.37443 0.913253 2.37443C 0.867591 2.46575 0.867574 2.55707 0.867574 2.64839C 0.867574 2.73971 0.867591 2.87671 0.913253 2.96803C 0.958915 3.10502 1.09588 3.19634 1.23287 3.19634C 1.41551 3.19634 1.5525 3.15068 1.68949 3.05936C 1.87213 2.96804 2.05479 2.78539 2.10046 2.60274C 2.14612 2.51142 2.10046 2.37442 2.10046 2.2831C 2.14612 2.2831 2.19179 2.23745 2.19179 2.23745C 2.19179 2.37443 2.19179 2.46575 2.19179 2.60274C 2.19179 2.69406 2.19177 2.78538 2.14611 2.8767C 2.10045 2.96803 2.0548 3.05937 1.96348 3.15069C 1.82649 3.28768 1.64382 3.33333 1.46118 3.42465C 1.36985 3.47031 1.23289 3.47033 1.14156 3.47033C 1.05024 3.47033 0.913248 3.42465 0.821923 3.33332C 0.730599 3.242 0.684943 3.10502 0.684943 2.96803C 0.684943 2.92237 0.684943 2.83106 0.684943 2.7854C 0.730605 2.69408 0.730605 2.60273 0.684943 2.51141C 0.593618 2.6484 0.593596 2.83104 0.547934 2.96803C 0.547934 3.15068 0.54794 3.33333 0.639264 3.51598C 0.684926 3.56164 0.684932 3.6073 0.730594 3.65296C 0.821918 3.74429 0.95891 3.74429 1.05023 3.74429C 1.23288 3.74429 1.46119 3.69864 1.64384 3.60731C 1.87215 3.56165 2.00913 3.51598 2.10046 3.42465ZM 1.64384 2.19177C 1.59817 2.14611 1.59817 2.10046 1.64384 2.00914C 1.64384 2.00914 1.64382 2.00914 1.68949 2.00914C 1.73515 2.00914 1.73515 2.00913 1.78082 2.05479C 1.82648 2.10045 1.82648 2.10046 1.87215 2.14612C 1.78082 2.19178 1.73516 2.19177 1.64384 2.19177ZM 0.730594 2.05479C 0.776256 2.00913 0.867591 2.00914 0.913253 2.00914C 0.913253 1.96348 0.913253 1.91782 0.913253 1.87216L 0.867574 1.87216C 0.730588 1.91782 0.639269 1.96348 0.502283 2.00914C 0.365297 2.10046 0.228316 2.23744 0.136992 2.37443C 0.182654 2.32877 0.228311 2.2831 0.273973 2.2831C 0.456621 2.19178 0.593607 2.14611 0.730594 2.05479ZM 0.410953 3.47033C 0.365291 3.47033 0.319624 3.42466 0.319624 3.379C 0.273961 3.24201 0.31964 3.10503 0.365302 3.01371C 0.410964 2.92239 0.365302 2.83104 0.365302 2.73972C 0.365302 2.73972 0.365286 2.73972 0.319624 2.73972C 0.273961 2.83104 0.273984 2.87671 0.228322 2.96803C 0.18266 3.05936 0.182643 3.19635 0.182643 3.28767C 0.182643 3.379 0.182643 3.47032 0.182643 3.51598C 0.182643 3.56164 0.273961 3.60731 0.319624 3.60731C 0.410948 3.60731 0.456632 3.51599 0.456632 3.47033C 0.456632 3.42467 0.502294 3.33333 0.456632 3.28767C 0.456632 3.379 0.456615 3.42467 0.410953 3.47033ZM 9.31506 6.621C 9.2694 6.57534 9.17808 6.57535 9.08675 6.57535C 8.76712 6.57535 8.49314 6.57535 8.17351 6.57535C 8.17351 6.52969 8.17351 6.52968 8.17351 6.48402C 8.17351 6.43836 8.21919 6.3927 8.21919 6.34704C 8.21919 6.30138 8.17352 6.25572 8.12786 6.21006L 8.08218 6.21006C 8.03652 6.25572 8.03654 6.30138 7.99088 6.34704C 7.99088 6.3927 8.03653 6.43836 8.03653 6.48402C 8.03653 6.52968 8.03653 6.52969 8.03653 6.57535C 6.89498 6.57535 5.75342 6.57535 4.61187 6.57535C 4.38356 6.57535 4.2009 6.57535 3.97259 6.57535C 3.37898 6.57535 2.83104 6.57535 2.23744 6.57535C 1.96346 6.57535 1.64385 6.57535 1.36987 6.57535C 1.4612 6.71233 1.5525 6.758 1.68949 6.80366C 1.9178 6.89498 2.10046 6.89499 2.32877 6.89499C 2.55708 6.89499 2.78538 6.89499 3.05935 6.89499C 3.83561 6.89499 4.56621 6.89499 5.2968 6.89499C 5.98174 6.89499 6.66667 6.89497 7.3516 6.84931C 7.57991 6.84931 7.76257 6.84931 7.99088 6.84931C 7.99088 6.89497 7.99088 6.89498 7.99088 6.94064C 7.94522 6.9863 7.9452 6.98631 7.9452 7.03197C 7.9452 7.12329 7.99087 7.16894 8.03653 7.2146C 8.08219 7.16894 8.0822 7.16896 8.12786 7.1233C 8.21918 7.1233 8.35618 7.1233 8.4475 7.1233C 8.4475 7.16896 8.49314 7.16895 8.5388 7.16895C 8.58446 7.16895 8.63013 7.12328 8.63013 7.07762C 8.76712 7.07762 8.85844 7.07762 8.99542 7.07762C 9.04109 7.12328 9.04109 7.12329 9.08675 7.16895C 9.13241 7.16895 9.22375 7.16896 9.26941 7.1233C 9.31507 7.03197 9.36074 6.94063 9.36074 6.84931C 9.4064 6.80365 9.36073 6.71232 9.31506 6.621ZM 9.0411 7.03197C 8.94978 7.03197 8.81279 7.03197 8.72146 7.03197C 8.72146 6.98631 8.67579 6.98629 8.63013 6.98629C 8.58447 6.98629 8.58448 6.98631 8.58448 7.03197L 8.58448 7.07762C 8.49316 7.07762 8.35616 7.07762 8.26484 7.07762C 8.26484 7.03196 8.21919 7.03195 8.21919 6.98629C 8.21919 6.94063 8.21919 6.94065 8.21919 6.89499C 8.49316 6.89499 8.8128 6.89497 9.13243 6.84931C 9.04111 6.89497 9.0411 6.94064 9.0411 7.03197ZM 9.36074 3.56163C 9.36074 3.51597 9.40639 3.47033 9.40639 3.379C 9.40639 3.379 9.40639 3.37898 9.40639 3.33332C 9.36073 3.28766 9.2694 3.28766 9.22373 3.33332C 9.17807 3.33332 9.17808 3.37899 9.17808 3.42465C 9.22374 3.42465 9.26941 3.47032 9.26941 3.51598C 9.26941 3.60731 9.13243 3.60732 9.13243 3.69864C 9.13243 3.7443 9.17807 3.74429 9.22373 3.74429C 9.31506 3.74429 9.40638 3.69862 9.45204 3.65296L 9.45204 3.60731C 9.40638 3.56165 9.4064 3.56163 9.36074 3.56163ZM 10.6849 1.50684C 10.6393 1.23287 10.5936 0.913248 10.5936 0.639275C 10.6393 0.639275 10.6393 0.684926 10.6849 0.684926C 10.6849 0.639264 10.6849 0.593596 10.6849 0.593596C 10.6393 0.45661 10.5936 0.365291 10.5023 0.228305C 10.5023 0.182643 10.4566 0.182637 10.4566 0.136975C 10.411 0.136975 10.411 0.136992 10.411 0.182654C 10.3653 0.228316 10.3653 0.273973 10.3196 0.319635C 10.3196 0.365297 10.3196 0.41097 10.3196 0.502294C 10.3196 0.639281 10.3653 0.776261 10.3653 0.867586C 10.3653 0.867586 10.3653 0.958893 10.3653 1.05022C 10.3653 1.09588 10.3653 1.18721 10.3653 1.23288C 10.4109 1.64384 10.4566 2.00912 10.5023 2.42008C 10.5023 2.60273 10.5023 2.83106 10.4566 3.01371C 10.411 3.1507 10.274 3.28767 10.1827 3.42465C 10.0913 3.51598 9.95434 3.56164 9.86301 3.65296C 9.81735 3.69862 9.77168 3.69863 9.77168 3.74429C 9.86301 3.74429 9.90867 3.7443 9.99999 3.69864C 10.1826 3.65298 10.3653 3.56164 10.4566 3.42465C 10.5479 3.28767 10.6393 3.10502 10.6849 2.96803C 10.7306 2.78538 10.7306 2.64841 10.7306 2.46576C 10.7306 2.14612 10.6849 1.82647 10.6849 1.50684ZM 0.319624 1.64385C 0.365286 1.64385 0.410953 1.59818 0.410953 1.55252C 0.456615 1.46119 0.502283 1.3242 0.502283 1.23288C 0.502283 1.18721 0.502283 1.14156 0.502283 1.0959C 0.502283 1.00457 0.547951 0.913231 0.593613 0.821907C 0.593613 0.867569 0.593613 0.913253 0.593613 0.958915C 0.593613 1.05024 0.593596 1.0959 0.547934 1.18723C 0.547934 1.32421 0.54794 1.50684 0.639264 1.59817C 0.684926 1.68949 0.821929 1.73515 0.913253 1.73515C 0.913253 1.9178 0.958904 2.10045 0.958904 2.2831C 0.958904 2.32876 0.958904 2.4201 0.958904 2.46576C 0.958904 2.55708 0.958904 2.64841 0.958904 2.69407C 1.00457 2.64841 1.00457 2.55707 1.05023 2.51141C 1.05023 2.32876 1.05022 2.14611 1.00455 1.96346C 1.00455 1.82647 1.00457 1.73515 0.958904 1.59817C 1.00457 1.55251 1.05023 1.50685 1.05023 1.46119C 1.05023 1.41553 1.09588 1.41552 1.09588 1.36986C 1.14155 1.41552 1.14155 1.50685 1.18721 1.55252C 1.23288 1.64384 1.36985 1.64385 1.46118 1.64385C 1.5525 1.59818 1.59816 1.5525 1.68949 1.50684C 1.73515 1.41551 1.73517 1.27855 1.73517 1.18723C 1.73517 1.05024 1.6895 0.913242 1.64384 0.776256C 1.6895 0.776256 1.6895 0.776267 1.73517 0.730605C 1.73517 0.684943 1.73517 0.684937 1.73517 0.639275C 1.73517 0.593613 1.68949 0.547945 1.68949 0.547945C 1.64382 0.502283 1.64383 0.456627 1.55251 0.410964C 1.50684 0.410964 1.50684 0.456632 1.46118 0.502294C 1.46118 0.547956 1.41553 0.547934 1.41553 0.593596C 1.41553 0.639258 1.46118 0.684932 1.46118 0.776256C 1.50684 0.913242 1.55252 1.09588 1.59818 1.27853C 1.59818 1.32419 1.59817 1.36986 1.55251 1.36986C 1.50684 1.36986 1.41554 1.36987 1.36987 1.32421C 1.32421 1.27854 1.27854 1.23289 1.27854 1.18723C 1.23288 1.05024 1.1872 0.913242 1.23287 0.776256C 1.27853 0.639269 1.18721 0.502289 1.09588 0.410964C 1.09588 0.410964 1.05023 0.410953 1.05023 0.456615C 1.00457 0.54794 1.00457 0.639269 1.05023 0.776256C 1.0959 0.913242 1.0959 1.05022 1.14156 1.14155C 1.14156 1.23287 1.09588 1.3242 1.00455 1.36986C 1.00455 1.3242 1.00455 1.32419 1.00455 1.27853C 1.00455 1.23287 1.00455 1.23289 1.00455 1.18723C 1.00455 1.00458 0.958904 0.821923 0.958904 0.639275C 1.00457 0.639275 1.00457 0.593607 1.05023 0.547945C 1.05023 0.456621 1.00457 0.365308 0.958904 0.273984C 0.958904 0.228322 0.913236 0.182654 0.867574 0.182654C 0.821912 0.228316 0.776245 0.273973 0.776245 0.319635C 0.776245 0.365297 0.776261 0.410953 0.821923 0.456615C 0.821923 0.54794 0.867574 0.639281 0.867574 0.730605C 0.867574 0.821929 0.867591 0.958893 0.913253 1.05022C 0.913253 1.14154 0.913242 1.27853 0.958904 1.36986C 0.913242 1.36986 0.867574 1.36987 0.867574 1.32421C 0.821912 1.27854 0.776245 1.23287 0.776245 1.14155C 0.776245 1.09588 0.776245 1.09588 0.776245 1.05022C 0.776245 1.00456 0.776245 0.913248 0.776245 0.867586C 0.776245 0.776261 0.821923 0.730599 0.821923 0.639275C 0.821923 0.593613 0.821923 0.54794 0.821923 0.456615C 0.821923 0.410953 0.776256 0.365302 0.730594 0.410964C 0.684932 0.410964 0.639275 0.456632 0.593613 0.502294C 0.547951 0.593618 0.502294 0.684932 0.456632 0.776256C 0.41097 0.913242 0.410964 1.09589 0.365302 1.23288C 0.365302 1.27854 0.319635 1.27853 0.273973 1.27853C 0.228311 1.27853 0.182643 1.18723 0.182643 1.18723C 0.136981 1.05024 0.136975 0.913242 0.091313 0.776256C 0.091313 0.684932 0.091313 0.593618 0.091313 0.502294C 0.091313 0.502294 0.0913242 0.502294 0.0456621 0.502294C 0 0.593618 1.1148e-05 0.684932 1.1148e-05 0.776256C 1.1148e-05 1.00457 0.0456677 1.23289 0.136992 1.41554C 0.228316 1.59818 0.273961 1.64385 0.319624 1.64385ZM 1.41553 0.410964C 1.46119 0.410964 1.50684 0.410948 1.55251 0.365286C 1.59817 0.365286 1.59818 0.410964 1.59818 0.410964L 1.64384 0.410964C 1.6895 0.410964 1.68949 0.365297 1.68949 0.319635C 1.68949 0.273973 1.6895 0.228305 1.64384 0.228305C 1.64384 0.273967 1.64383 0.365297 1.55251 0.319635C 1.50684 0.273973 1.50685 0.228316 1.50685 0.182654C 1.50685 0.228316 1.46119 0.273973 1.41553 0.319635L 1.36987 0.319635C 1.36987 0.273973 1.36987 0.228316 1.36987 0.182654C 1.36987 0.182654 1.36987 0.182637 1.36987 0.136975C 1.32421 0.182637 1.3242 0.228322 1.3242 0.273984C 1.36986 0.319646 1.36986 0.365302 1.41553 0.410964ZM 3.28766 0.684926C 3.33332 0.684926 3.33333 0.684937 3.37899 0.639275C 3.37899 0.593613 3.37899 0.593607 3.37899 0.547945C 3.42465 0.502283 3.42467 0.410948 3.42467 0.365286C 3.42467 0.319624 3.42465 0.228316 3.37899 0.182654C 3.33333 0.136992 3.28767 0.136975 3.24201 0.136975C 3.19635 0.182637 3.15069 0.228322 3.10503 0.273984C 3.05937 0.365308 3.05936 0.502283 3.15068 0.547945C 3.01369 0.730594 2.87671 0.821929 2.69406 0.958915C 2.6484 1.00458 2.60274 1.00456 2.55708 1.05022C 2.55708 1.05022 2.55708 1.05023 2.55708 1.0959C 2.60274 1.0959 2.69408 1.05022 2.73974 1.05022C 2.96805 1.00456 3.15067 0.867574 3.28766 0.684926ZM 3.19636 0.365286C 3.19636 0.319624 3.24201 0.319646 3.24201 0.273984C 3.28767 0.319646 3.24201 0.365302 3.24201 0.410964C 3.19635 0.410964 3.19636 0.410948 3.19636 0.365286ZM 0.502283 0.228305C 0.502283 0.319629 0.502283 0.365291 0.502283 0.456615C 0.502283 0.502278 0.502294 0.502283 0.456632 0.547945C 0.502294 0.456621 0.547951 0.365308 0.593613 0.273984C 0.593613 0.228322 0.593596 0.136986 0.547934 0.0913242C 0.502272 0.0913242 0.456632 0.091313 0.456632 0.136975C 0.41097 0.182637 0.410953 0.182643 0.410953 0.228305C 0.410953 0.319629 0.410959 0.228305 0.502283 0.228305ZM 3.15068 1.00457C 3.15068 1.00457 3.10502 1.00457 3.15068 1.00457C 3.05936 1.05023 3.05936 1.09588 3.0137 1.14155C 2.96804 1.18721 2.96805 1.27854 2.96805 1.32421C 2.96805 1.36987 3.01369 1.41553 3.05935 1.46119C 3.10501 1.46119 3.1507 1.4612 3.19636 1.41554C 3.24202 1.36987 3.28766 1.27854 3.28766 1.23288C 3.242 1.23288 3.19636 1.27854 3.19636 1.32421C 3.1507 1.36987 3.10503 1.36986 3.10503 1.36986C 3.05937 1.36986 3.05935 1.32419 3.05935 1.27853C 3.05935 1.1872 3.15068 1.09589 3.15068 1.00457Z" transform="translate(4.90442 6.5835)" fill="white"></path>
							</g>
							</g>
							</g>
							</svg>