<svg width="21" height="21" viewBox="0 0 21 21" version="1.1" xmlns="http://www.w3.org/2000/svg" xmlns:xlink="http://www.w3.org/1999/xlink">
							<g id="Canvas" fill="none">
							<g id="Group">
							<g id="Group_2">
							<path id="Vector" d="M 20 10.0229C 20 15.5607 15.5149 20.0458 9.97712 20.0458C 4.48513 20.0458 0 15.5607 0 10.0229C 0 4.48514 4.48513 0 10.0229 0C 15.5149 0.0457666 20 4.5309 20 10.0229Z" transform="translate(0.29248 0.236328)" fill="white"></path>
							<path id="Vector_2" fill-rule="evenodd" clip-rule="evenodd" d="M 0.0457666 0C 0 0 -1.74586e-07 0.0457554 -1.74586e-07 0.0457554C -1.74586e-07 0.0457554 0 0 0.0457666 0Z" transform="translate(7.11169 8.24561)" fill="#B51D3A"></path>
							<path id="Vector_3" fill-rule="evenodd" clip-rule="evenodd" d="M 0.503433 1.05264L 1.46453 2.51715L 0.915332 2.88331L 0 1.41877L 0.503433 1.05264ZM 3.20366 1.73914L 4.16476 3.20365L 3.66133 3.52402L 2.70023 2.10527L 3.20366 1.73914ZM 2.10526 -1.11735e-05L 3.06636 1.46453L 2.51716 1.7849L 1.55606 0.320361L 2.10526 -1.11735e-05ZM 1.28146 0.549193L 3.43249 3.75285L 2.88329 4.11898L 0.778032 0.915321L 1.28146 0.549193ZM 1.6476 2.79177L 2.6087 4.2563L 2.10526 4.62243L 1.14416 3.15789L 1.6476 2.79177Z" transform="translate(14.0225 4.17236)" fill="#030403"></path>
							<path id="Vector_4" fill-rule="evenodd" clip-rule="evenodd" d="M 2.10526 5.58674e-06L 4.21053 3.15788L 3.70709 3.52404L 1.55606 0.366133L 2.10526 5.58674e-06ZM 0.503432 1.05263L 2.6087 4.25629L 2.10526 4.62242L -4.36464e-08 1.41876L 0.503432 1.05263ZM 2.42563 2.24255L 3.38673 3.70709L 2.88329 4.07322L 1.9222 2.60871L 2.42563 2.24255ZM 1.32723 0.503427L 2.28833 1.96796L 1.73913 2.33409L 0.778032 0.869554L 1.32723 0.503427Z" transform="translate(2.39771 11.9985)" fill="#030403"></path>
							<path id="Vector_5" fill-rule="evenodd" clip-rule="evenodd" d="M 1.55606 4.2563L 3.66133 1.05264L 4.16476 1.41877L 2.0595 4.62243L 1.55606 4.2563ZM -4.36464e-08 3.20365L 2.10526 -1.11735e-05L 2.6087 0.320361L 0.503432 3.52402L -4.36464e-08 3.20365ZM 0.778032 3.75285L 2.92906 0.549193L 3.43249 0.915321L 1.32723 4.11898L 0.778032 3.75285Z" transform="translate(2.39771 4.17236)" fill="#030403"></path>
							<path id="Vector_6" fill-rule="evenodd" clip-rule="evenodd" d="M 0 3.15788L 0.915332 1.73913L 1.46453 2.10526L 0.503433 3.52404L 0 3.15788ZM 2.70023 2.51717L 3.66133 1.05263L 4.16476 1.41876L 3.20366 2.8833L 2.70023 2.51717ZM 1.5103 4.21054L 2.4714 2.746L 3.02059 3.11213L 2.0595 4.57666L 1.5103 4.21054ZM 1.87643 1.96796L 2.83753 0.503427L 3.38673 0.869554L 2.42563 2.33409L 1.87643 1.96796ZM 0.778032 3.70709L 1.73913 2.24255L 2.24256 2.60871L 1.28146 4.07322L 0.778032 3.70709ZM 1.0984 1.46454L 2.0595 5.58674e-06L 2.56293 0.366133L 1.60183 1.78489L 1.0984 1.46454Z" transform="translate(14.0225 11.9985)" fill="#030403"></path>
							<path id="Vector_7" fill-rule="evenodd" clip-rule="evenodd" d="M 5.59462 0.646251C 3.85549 -0.54368 1.47562 -0.0402646 0.331458 1.74463C -0.263507 2.6142 -0.0346742 3.80415 0.834891 4.39912C 1.70446 4.99408 2.89439 4.76523 3.44359 3.89567C 4.03855 3.0261 5.22848 2.79728 6.09805 3.39225C 6.96761 3.98721 7.19645 5.17714 6.60148 6.0467C 7.79141 4.21604 7.33375 1.83618 5.59462 0.646251Z" transform="translate(6.82605 6.54688)" fill="#B51D3A"></path>
							<path id="Vector_8" fill-rule="evenodd" clip-rule="evenodd" d="M 0.662917 0C 0.067951 0.869565 0.296784 2.05949 1.16635 2.65446C 2.03591 3.24942 3.22585 3.0206 3.77504 2.15104C 4.37001 1.28147 5.55994 1.05262 6.42951 1.64759C 7.29907 2.24255 7.52791 3.43251 6.93294 4.30207C 5.78877 6.08697 3.40891 6.54462 1.66978 5.40045C -0.0693484 4.16475 -0.527015 1.7849 0.662917 0Z" transform="translate(6.49451 8.24561)" fill="#273676"></path>
							</g>
							</g>
							</g>
							</svg>