<svg width="21" height="21" viewBox="0 0 21 21" version="1.1" xmlns="http://www.w3.org/2000/svg" xmlns:xlink="http://www.w3.org/1999/xlink">
							<g id="Canvas" fill="none">
							<g id="Group">
							<g id="Group_2">
							<path id="Vector" d="M 20 10C 20 15.5251 15.5251 20 9.99999 20C 4.47487 20 5.57399e-06 15.5251 5.57399e-06 10C 5.57399e-06 4.47488 4.47487 0 9.99999 0C 15.5251 0 20 4.47488 20 10Z" transform="translate(0.29248 0.236328)" fill="#DE2910"></path>
							<g id="Group_3">
							<g id="Group_4">
							<g id="Group_5">
							<path id="Vector_2" d="M 2.73973 -1.3935e-06L 3.37901 1.96347L 5.47945 1.96347L 3.78995 3.19635L 4.42923 5.20548L 2.73973 3.9726L 1.05022 5.20548L 1.6895 3.19635L 0 1.96347L 2.10045 1.96347L 2.73973 -1.3935e-06Z" transform="translate(2.02759 4.20898)" fill="#FFDE00"></path>
							</g>
							<path id="Vector_3" d="M 1.14156 -2.78699e-06L 1.09588 0.684929L 1.73517 0.958904L 1.09588 1.09589L 1.05023 1.78082L 0.684943 1.23288L 1.1148e-05 1.36986L 0.456632 0.867581L 0.0913131 0.273973L 0.730594 0.547948L 1.14156 -2.78699e-06Z" transform="translate(9.05957 3.15869)" fill="#FFDE00"></path>
							<path id="Vector_4" d="M 1.59816 0.18265L 1.27855 0.776259L 1.78082 1.27854L 1.09589 1.18721L 0.77625 1.78082L 0.68492 1.09589L -1.1148e-05 1.00457L 0.593618 0.684929L 0.502289 -2.78699e-06L 0.95891 0.502283L 1.59816 0.18265Z" transform="translate(10.9773 5.21338)" fill="#FFDE00"></path>
							<path id="Vector_5" d="M 0.86758 -2.78699e-06L 1.09589 0.639271L 1.78082 0.639271L 1.23287 1.05023L 1.46118 1.73516L 0.86758 1.3242L 0.319629 1.6895L 0.54794 1.05023L -1.1148e-05 0.639271L 0.68492 0.639271L 0.86758 -2.78699e-06Z" transform="translate(10.9773 8.18164)" fill="#FFDE00"></path>
							<path id="Vector_6" d="M 1.14156 0L 1.09588 0.684932L 1.73517 0.958907L 1.09588 1.09589L 1.05023 1.78082L 0.684943 1.23288L 1.1148e-05 1.36986L 0.456632 0.867577L 0.0913131 0.273975L 0.730594 0.547944L 1.14156 0Z" transform="translate(9.05957 10.2822)" fill="#FFDE00"></path>
							</g>
							</g>
							</g>
							</g>
							</g>
							</svg>