<svg width="21" height="21" viewBox="0 0 21 21" version="1.1" xmlns="http://www.w3.org/2000/svg" xmlns:xlink="http://www.w3.org/1999/xlink">
							<g id="Canvas" fill="none">
							<g id="Group">
							<g id="Group_2">
							<path id="Vector" d="M 20 10C 20 15.5251 15.5251 20 10 20C 4.47489 20 -5.57399e-06 15.5251 -5.57399e-06 10C -5.57399e-06 4.47489 4.47489 -5.57399e-06 10 -5.57399e-06C 15.5251 0.0456565 20 4.52055 20 10Z" transform="translate(0.29248 0.236328)" fill="white"></path>
							<path id="Vector_2" d="M 9.95434 4.97717C 9.95434 7.7169 7.71689 9.95434 4.97716 9.95434C 2.23744 9.95434 1.1148e-05 7.7169 1.1148e-05 4.97717C 1.1148e-05 2.23745 2.23744 -5.57399e-06 4.97716 -5.57399e-06C 7.71689 -5.57399e-06 9.95434 2.23745 9.95434 4.97717Z" transform="translate(5.36096 5.25928)" fill="#BE0026"></path>
							</g>
							</g>
							</g>
							</svg>