<svg width="17" height="17" viewBox="0 0 17 17" version="1.1" xmlns="http://www.w3.org/2000/svg" xmlns:xlink="http://www.w3.org/1999/xlink">
					<g id="Canvas" fill="none">
					<g id="Group">
					<g id="Group_2">
					<path id="Vector" d="M 4.84684 0C 2.88748 0 1.13437 0.928118 -1.96694e-07 2.37186C 0.309373 2.37186 0.515621 2.37186 0.824994 2.37186C 5.15621 2.37186 8.76556 5.98121 8.76556 10.3124C 8.76556 10.6218 8.76556 10.828 8.76556 11.1374C 10.1062 9.89993 11.0343 8.14681 11.0343 6.18745C 11.0343 2.78435 8.24994 0 4.84684 0Z" transform="translate(5.75391 0.296875)" fill="#ffffff"></path>
					<path id="Vector_2" fill-rule="evenodd" clip-rule="evenodd" d="M 6.18745 0C 2.78435 0 0 2.78435 0 6.18745C 0 9.59055 2.78435 12.3749 6.18745 12.3749C 9.59055 12.3749 12.3749 9.59055 12.3749 6.18745C 12.3749 2.78435 9.59055 0 6.18745 0ZM 9.17643 4.84265L 9.03343 5.57596C 9.02587 5.61251 9.00665 5.64561 8.97866 5.6703C 8.95067 5.69498 8.91542 5.70991 8.87821 5.71284L 7.95668 5.71284L 7.77091 6.66493L 8.74744 6.66493C 8.75752 6.66482 8.76749 6.66702 8.77659 6.67136C 8.78568 6.6757 8.79367 6.68207 8.79992 6.68997C 8.80617 6.69788 8.81053 6.70711 8.81266 6.71697C 8.8148 6.72682 8.81464 6.73703 8.81221 6.74681L 8.66922 7.48012C 8.66133 7.5175 8.64116 7.55116 8.61192 7.57575C 8.58269 7.60033 8.54607 7.61443 8.50789 7.61579L 7.59247 7.61579L 7.45192 8.34054C 7.44336 8.3777 7.42279 8.41099 7.39341 8.43529C 7.36403 8.45959 7.32747 8.47354 7.28937 8.47498L 6.36173 8.47498C 6.35163 8.47556 6.34153 8.47371 6.33229 8.46959C 6.32304 8.46548 6.31491 8.45922 6.30858 8.45133C 6.30224 8.44344 6.29788 8.43415 6.29586 8.42423C 6.29384 8.41432 6.29421 8.40406 6.29695 8.39432L 6.63306 6.6637L 5.49398 6.6637L 5.16888 8.34054C 5.1605 8.37779 5.13999 8.41121 5.11057 8.43554C 5.08115 8.45987 5.04448 8.47375 5.00633 8.47498L 4.0848 8.47498C 4.07469 8.47556 4.0646 8.47371 4.05535 8.46959C 4.04611 8.46548 4.03798 8.45922 4.03165 8.45133C 4.02531 8.44344 4.02095 8.43415 4.01893 8.42423C 4.0169 8.41432 4.01728 8.40406 4.02002 8.39432L 4.17035 7.61579L 3.19993 7.61579C 3.18981 7.61629 3.1797 7.61441 3.17044 7.6103C 3.16117 7.60619 3.153 7.59996 3.14658 7.59211C 3.14016 7.58426 3.13567 7.57502 3.13347 7.56512C 3.13128 7.55522 3.13144 7.54495 3.13394 7.53512L 3.27815 6.79937C 3.28648 6.76199 3.30694 6.72841 3.33634 6.70388C 3.36575 6.67934 3.40244 6.66521 3.4407 6.6637L 4.35612 6.6637L 4.54067 5.7104L 3.57637 5.7104C 3.56629 5.71051 3.55632 5.70831 3.54722 5.70397C 3.53812 5.69962 3.53014 5.69326 3.52389 5.68535C 3.51763 5.67744 3.51327 5.66821 3.51114 5.65836C 3.50901 5.64851 3.50916 5.6383 3.51159 5.62851L 3.65459 4.8952C 3.66248 4.85782 3.68264 4.82416 3.71188 4.79958C 3.74112 4.77499 3.77774 4.7609 3.81592 4.75954L 4.72278 4.75954L 4.867 4.036C 4.87488 3.99863 4.89505 3.96497 4.92429 3.94038C 4.95353 3.91579 4.99015 3.9017 5.02832 3.90034L 5.94496 3.90034C 5.95548 3.89899 5.96617 3.90025 5.97608 3.904C 5.986 3.90774 5.99485 3.91387 6.00185 3.92183C 6.00884 3.9298 6.01378 3.93936 6.01622 3.94967C 6.01866 3.95999 6.01854 3.97075 6.01585 3.981L 5.67975 5.71162L 6.81761 5.71162L 7.14393 4.03845C 7.15182 4.00107 7.17199 3.96741 7.20122 3.94282C 7.23046 3.91824 7.26708 3.90414 7.30526 3.90278L 8.23045 3.90278C 8.24058 3.90228 8.25068 3.90416 8.25995 3.90827C 8.26922 3.91239 8.27739 3.91862 8.28381 3.92646C 8.29023 3.93431 8.29472 3.94355 8.29691 3.95345C 8.29911 3.96335 8.29895 3.97362 8.29645 3.98345L 8.1449 4.76198L 9.11165 4.76198C 9.12168 4.76167 9.13163 4.7637 9.14074 4.7679C 9.14985 4.77209 9.15786 4.77835 9.16414 4.78617C 9.17042 4.79399 9.1748 4.80316 9.17693 4.81296C 9.17906 4.82276 9.17889 4.83292 9.17643 4.84265Z" transform="translate(0.390625 4.31836)" fill="#ffffff"></path>
					</g>
					</g>
					</g>
					</svg>