<svg width="21" height="21" viewBox="0 0 21 21" version="1.1" xmlns="http://www.w3.org/2000/svg" xmlns:xlink="http://www.w3.org/1999/xlink">
							<g id="Canvas" fill="none">
							<g id="Group">
							<g id="Group_2">
							<path id="Vector" d="M 0.3211 0C 0.183485 0.275229 0.0917431 0.550481 0 0.82571L 1.55963 0.82571L 0.3211 0Z" transform="translate(0.705322 6.91211)" fill="#01247D"></path>
							<path id="Vector_2" d="M 1.28441 0.871582C 1.42202 0.596353 1.51376 0.321112 1.6055 1.11991e-05L -5.59956e-06 1.11991e-05L 1.28441 0.871582Z" transform="translate(18.2742 13.7466)" fill="#01247D"></path>
							<path id="Vector_3" d="M -2.79978e-06 2.70644C 1.14679 3.85323 2.52293 4.72479 4.12844 5.22938L 4.12844 1.11991e-05L -2.79978e-06 2.70644Z" transform="translate(3.18237 15.123)" fill="#01247D"></path>
							<path id="Vector_4" d="M 4.12844 0C 2.56881 0.504587 1.14679 1.37615 1.39989e-06 2.52294L 4.12844 5.27523L 4.12844 0Z" transform="translate(3.13647 1.17773)" fill="#01247D"></path>
							<path id="Vector_5" d="M 1.60551 0.82571C 1.51377 0.550481 1.42202 0.275229 1.2844 0L 5.59956e-06 0.82571L 1.60551 0.82571Z" transform="translate(18.2283 6.91211)" fill="#01247D"></path>
							<path id="Vector_6" d="M -2.79978e-06 5.27525C 1.55963 4.77066 2.98165 3.8991 4.12844 2.75232L -2.79978e-06 2.23982e-05L -2.79978e-06 5.27525Z" transform="translate(13.2742 15.0771)" fill="#01247D"></path>
							<path id="Vector_7" d="M 0 0C 0.0917431 0.275229 0.183485 0.596341 0.3211 0.871571L 1.6055 0L 0 0Z" transform="translate(0.705322 13.7925)" fill="#01247D"></path>
							<path id="Vector_8" d="M 4.12844 2.52294C 2.98165 1.37615 1.6055 0.504587 -2.79978e-06 0L -2.79978e-06 5.27523L 4.12844 2.52294Z" transform="translate(13.2742 1.17773)" fill="#01247D"></path>
							<path id="Vector_9" d="M 8.11926 -2.23982e-05L -1.39989e-06 -2.23982e-05L -1.39989e-06 8.11928C 0.412843 8.02753 0.825685 7.93576 1.23853 7.79814L 1.23853 2.56883L 5.36697 5.32112C 5.82569 4.86241 6.23853 4.3578 6.60551 3.80734L 2.79817 1.2844L 5.18349 1.2844L 7.24771 2.66055C 7.33945 2.47706 7.38532 2.33946 7.47706 2.15597L 6.19267 1.2844L 7.79817 1.2844C 7.93579 0.87156 8.02752 0.458693 8.11926 -2.23982e-05Z" transform="translate(12.0356 12.5083)" fill="white"></path>
							<path id="Vector_10" d="M 6.88074 0.321101L 6.88074 5.59633L 2.7523 2.84404C 2.29358 3.30275 1.88074 3.80736 1.51376 4.35782L 5.36697 6.92662L 2.98165 6.92662L 0.871558 5.50461C 0.779815 5.6881 0.688076 5.87156 0.596333 6.05505L 1.88073 6.88076L 0.321101 6.88076C 0.183486 7.2936 0.0917445 7.70642 1.39989e-06 8.11927L 8.11927 8.11927L 8.11927 2.23982e-05C 7.70642 0.137637 7.29358 0.229358 6.88074 0.321101Z" transform="translate(0.384277 0.856934)" fill="white"></path>
							<path id="Vector_11" d="M -2.79978e-06 -2.23982e-05C 0.0917403 0.412822 0.183489 0.825699 0.321104 1.23854L 1.92661 1.23854L 0.642203 2.11011C 0.871561 2.70644 1.19266 3.25689 1.51376 3.76148L 5.3211 1.23854L 6.88073 1.23854L 6.88073 1.78898L 2.33945 4.81649C 2.47706 4.99998 2.61468 5.13764 2.79817 5.32112L 6.92661 2.56883L 6.92661 7.79814C 7.33945 7.93576 7.75229 8.02753 8.16514 8.11928L 8.16514 -2.23982e-05L -2.79978e-06 -2.23982e-05Z" transform="translate(0.430054 12.5083)" fill="white"></path>
							<path id="Vector_12" d="M 7.7523 6.88076L 6.19266 6.88076L 7.47707 6.05505C 7.24771 5.45872 6.92661 4.86241 6.55964 4.35782L 2.70642 6.92662L 1.23853 6.92662L 1.23853 6.33026L 5.77981 3.30275C 5.6422 3.16514 5.50459 3.02752 5.36697 2.84404L 1.23853 5.59633L 1.23853 0.321101C 0.825688 0.183486 0.412845 0.0917655 1.39989e-06 2.23982e-05L 1.39989e-06 8.11927L 8.11927 8.11927C 7.98165 7.70642 7.88991 7.2936 7.7523 6.88076Z" transform="translate(12.0814 0.856934)" fill="white"></path>
							<path id="Vector_13" d="M 19.8624 8.25687L 11.7431 8.25687L 11.7431 0.137626C 11.1927 0.0458828 10.5963 -1.11991e-05 10 -1.11991e-05C 9.40367 -1.11991e-05 8.80734 0.0458828 8.25688 0.137626L 8.25688 8.25687L 0.137612 8.25687C 0.0458688 8.80733 2.79978e-06 9.40368 2.79978e-06 10C 2.79978e-06 10.5963 0.0458688 11.1926 0.137612 11.7431L 8.25688 11.7431L 8.25688 19.8624C 8.80734 19.9541 9.40367 20 10 20C 10.5963 20 11.1927 19.9541 11.7431 19.8624L 11.7431 11.7431L 19.8624 11.7431C 19.9541 11.1926 20 10.5963 20 10C 20 9.40368 19.9541 8.80733 19.8624 8.25687Z" transform="translate(0.29248 0.765137)" fill="#CF142B"></path>
							<path id="Vector_14" d="M -2.79978e-06 0L 3.80735 2.52294C 4.0367 2.15596 4.26606 1.78899 4.44954 1.37615L 2.38532 0L -2.79978e-06 0Z" transform="translate(14.8796 13.7925)" fill="#CF142B"></path>
							<path id="Vector_15" d="M 0.0458688 3.62388L 1.51376 3.62388L 5.36697 1.05502C 5.13761 0.688051 4.86239 0.321112 4.54129 1.11991e-05L 1.39989e-06 3.02752L 1.39989e-06 3.62388L 0.0458688 3.62388Z" transform="translate(13.2283 4.11377)" fill="#CF142B"></path>
							<path id="Vector_16" d="M 5.36697 0L 3.80734 0L 2.79978e-06 2.52294C 0.229361 2.88991 0.504589 3.2569 0.779818 3.578L 5.3211 0.550436L 5.3211 0L 5.36697 0Z" transform="translate(1.89795 13.7925)" fill="#CF142B"></path>
							<path id="Vector_17" d="M 4.49542 2.56883L 0.642201 -2.23982e-05C 0.412843 0.36695 0.183488 0.733923 1.39989e-06 1.14677L 2.11009 2.56883L 4.49542 2.56883Z" transform="translate(1.30164 5.16895)" fill="#CF142B"></path>
							</g>
							</g>
							</g>
							</svg>