<svg width="21" height="21" viewBox="0 0 21 21" version="1.1" xmlns="http://www.w3.org/2000/svg" xmlns:xlink="http://www.w3.org/1999/xlink">
							<g id="Canvas" fill="none">
							<g id="Group">
							<path id="Vector" d="M 9.06179 5.85812C 13.0893 5.85812 16.5675 3.47826 18.1693 1.39669e-06L 1.11735e-05 1.39669e-06C 1.55608 3.4325 5.03433 5.85812 9.06179 5.85812Z" transform="translate(1.20776 14.4238)" fill="#007A3D"></path>
							<path id="Vector_2" d="M 9.10756 1.39669e-06C 5.0801 1.39669e-06 1.60182 2.37986 -5.58674e-06 5.85812L 18.1693 5.85812C 16.6133 2.42563 13.135 1.39669e-06 9.10756 1.39669e-06Z" transform="translate(1.16199 0.236328)" fill="#D81E05"></path>
							<path id="Vector_3" d="M 1.11735e-05 4.16476C 1.11735e-05 5.67506 0.320377 7.04806 0.915343 8.32952L 19.0847 8.32952C 19.6796 7.04806 20 5.62929 20 4.16476C 20 2.65446 19.6796 1.28146 19.0847 -6.98343e-07L 0.915343 -6.98343e-07C 0.320377 1.28146 1.11735e-05 2.65446 1.11735e-05 4.16476Z" transform="translate(0.29248 6.09424)" fill="#F7E214"></path>
							</g>
							</g>
							</svg>