<svg width="16" height="15" viewBox="0 0 16 15" version="1.1" xmlns="http://www.w3.org/2000/svg" xmlns:xlink="http://www.w3.org/1999/xlink">
					<g id="Canvas" fill="none">
					<g id="Group">
					<path id="Vector" fill-rule="evenodd" clip-rule="evenodd" d="M 12.8419 10.3682C 11.9472 9.89457 10.6314 8.84195 8.68406 8.47354C 9.15774 7.8946 9.52615 6.99988 9.9472 5.94727C 10.1577 5.3157 10.1051 4.78939 10.1051 4.05256C 10.1051 3.47362 10.2104 2.63153 10.0525 2.10523C 9.63141 0.473676 8.52617 -7.84258e-10 7.26303 -7.84258e-10C 5.9999 -7.84258e-10 4.89465 0.473676 4.47361 2.10523C 4.36835 2.63153 4.42098 3.47362 4.42098 4.05256C 4.42098 4.78939 4.36835 5.3157 4.6315 5.94727C 4.99991 6.99988 5.36833 7.8946 5.89464 8.47354C 3.9473 8.84195 2.63153 9.9472 1.78944 10.3682C 0 11.263 0 12.2103 0 12.2103L 0 12.5787C 0 13.2103 0.684199 13.8419 1.3684 13.8419L 13.3682 13.8419C 14.2103 13.8419 14.7366 13.1577 14.7366 12.5261L 14.7366 12.2103C 14.684 12.2103 14.684 11.263 12.8419 10.3682Z" transform="translate(0.279297 0.280273)" fill="#636363"></path>
					</g>
					</g>
					</svg>