<svg width="15" height="12" viewBox="0 0 15 12" version="1.1" xmlns="http://www.w3.org/2000/svg" xmlns:xlink="http://www.w3.org/1999/xlink">
					<g id="Canvas" fill="none">
					<g id="Group">
					<path id="Vector" fill-rule="evenodd" clip-rule="evenodd" d="M 14.1016 8.12434L 14.1016 6.09325L 13.115 6.09325L 13.115 -1.41678e-05L 11.0839 -1.41678e-05L 11.0839 6.09325L 10.0974 6.09325L 10.0974 8.12434L 11.0839 8.12434L 11.0839 11.142L 13.115 11.142L 13.115 8.12434L 14.1016 8.12434ZM 8.06631 11.142L 8.06631 4.06216L 9.05285 4.06216L 9.05285 2.03108L 8.06631 2.03108L 8.06631 -1.41678e-05L 6.03522 -1.41678e-05L 6.03522 2.03108L 5.04872 2.03108L 5.04872 4.06216L 6.03522 4.06216L 6.03522 11.142L 8.06631 11.142ZM 3.01763 11.142L 3.01763 8.12434L 4.00413 8.12434L 4.00413 6.09325L 3.01763 6.09325L 3.01763 -1.41678e-05L 0.986543 -1.41678e-05L 0.986543 6.09325L 7.08388e-06 6.09325L 7.08388e-06 8.12434L 0.986543 8.12434L 0.986543 11.142L 3.01763 11.142Z" transform="translate(0.898438 0.428711)" fill="#ffffff"></path>
					</g>
					</g>
					</svg>