<svg width="20" height="15" viewBox="0 0 20 15" version="1.1" xmlns="http://www.w3.org/2000/svg" xmlns:xlink="http://www.w3.org/1999/xlink">
					<g id="Canvas" fill="none">
					<path id="Vector" d="M 17.9613 5.09256L 18.4074 2.86224C 18.4074 2.71355 18.3331 2.60204 18.1844 2.60204L 15.2478 2.60204L 15.6939 0.223032C 15.731 0.111516 15.6195 0 15.508 0L 12.7201 0C 12.4971 0 12.274 0.18586 12.2369 0.408891L 11.2332 5.50145L 7.77623 5.50145L 8.81704 0.223032C 8.81704 0.111516 8.70553 0 8.55684 0L 5.76894 0C 5.54591 0 5.32288 0.18586 5.28571 0.408891L 4.83964 2.60204L 2.08892 2.60204C 1.86589 2.60204 1.64286 2.7879 1.60568 3.01093L 1.15962 5.24124C 1.12245 5.38993 1.23397 5.50145 1.34548 5.50145L 4.28206 5.50145L 3.72449 8.40086L 0.93659 8.40086C 0.713558 8.40086 0.490527 8.58672 0.453355 8.80975L 0.00729137 11.0401C -0.0298806 11.1888 0.0816353 11.3003 0.193151 11.3003L 3.12973 11.3003L 2.68367 13.6793C 2.6465 13.828 2.75802 13.9395 2.86953 13.9395L 5.65743 13.9395C 5.88046 13.9395 6.10349 13.7536 6.14066 13.5306L 7.14431 8.43803L 10.6013 8.43803L 9.56048 13.7164C 9.52331 13.8651 9.63483 13.9767 9.74634 13.9767L 12.6458 13.9767C 12.8688 13.9767 13.0918 13.7908 13.129 13.5678L 13.5751 11.3746L 16.3629 11.3746C 16.586 11.3746 16.809 11.1888 16.8462 10.9657L 17.2922 8.73541C 17.3294 8.58672 17.2179 8.4752 17.1064 8.4752L 14.1698 8.4752L 14.7274 5.57579L 17.5153 5.57579C 17.7011 5.50145 17.9242 5.31559 17.9613 5.09256Z" transform="translate(0.861328 0.847656)" fill="#636363"></path>
					</g>
					</svg>