<svg width="19" height="15" viewBox="0 0 21 17" version="1.1" xmlns="http://www.w3.org/2000/svg" xmlns:xlink="http://www.w3.org/1999/xlink">
					<g id="Canvas" fill="none">
					<g id="Group">
					<path id="Vector" d="M 17.036 4.86744L 17.036 2.43372L 3.04215 2.43372C 2.67709 2.43372 2.43372 2.19035 2.43372 1.82529C 2.43372 1.46023 2.67709 1.21686 3.04215 1.21686L 16.671 1.21686C 16.3059 0.486744 15.4541 0 14.6023 0L 2.43372 0C 1.09517 0 0 1.09517 0 2.43372L 0 13.3855C 0 14.724 1.09517 15.8192 2.43372 15.8192L 14.6023 15.8192C 15.9409 15.8192 17.036 14.724 17.036 13.3855L 17.036 12.1686C 18.3746 12.1686 19.4698 11.0734 19.4698 9.73488L 19.4698 7.30116C 19.4698 5.96262 18.3746 4.86744 17.036 4.86744ZM 16.0626 10.465C 14.9674 10.5867 14.1156 9.73488 13.9939 8.76139C 13.8722 7.66622 14.724 6.81442 15.6975 6.69273C 16.7927 6.57105 17.6445 7.42285 17.7662 8.39634C 17.8878 9.36983 17.036 10.3433 16.0626 10.465Z" transform="translate(0.611328 0.777344)" fill="#636363"></path>
					</g>
					</g>
					</svg>