<svg width="21" height="21" viewBox="0 0 21 21" version="1.1" xmlns="http://www.w3.org/2000/svg" xmlns:xlink="http://www.w3.org/1999/xlink">
							<g id="Canvas" fill="none">
							<g id="Group">
							<g id="Group_2">
							<path id="Vector" d="M 1.83065 5.58674e-06C 1.18992 5.58674e-06 0.594955 0.0457554 -1.11735e-05 0.183055L -1.11735e-05 19.8627C 0.594955 19.9542 1.18992 20.0458 1.83065 20.0458C 7.36841 20.0458 11.8535 15.5606 11.8535 10.0229C 11.8535 4.48512 7.36841 5.58674e-06 1.83065 5.58674e-06Z" transform="translate(8.43909 0.236328)" fill="#CE1126"></path>
							<path id="Vector_2" d="M -5.58674e-06 9.83981C -5.58674e-06 14.7368 3.52403 18.8101 8.19223 19.6796L 8.19223 -1.11735e-05C 3.47827 0.869554 -5.58674e-06 4.94278 -5.58674e-06 9.83981Z" transform="translate(0.292603 0.419434)" fill="#3D8E33"></path>
							<g id="Group_3">
							<g id="Group_4">
							<g id="Group_5">
							<g id="x3C Path x3E  553">
							<path id="Vector_3" d="M 8.55835 5.76659C 7.04805 5.72083 0.0457554 1.32723 -1.11735e-05 0.640727L 0.366144 1.11735e-05C 1.05264 1.00688 8.23798 5.26315 8.92448 5.12585L 8.55835 5.76659Z" transform="translate(3.86243 7.65088)" fill="#FCD856"></path>
							</g>
							<g id="Group_6">
							<path id="x3C Path x3E  552" d="M 0.423728 0.0915388C 0.286428 0.457672 2.2544 1.69336 4.63426 3.11212C 7.01412 4.53089 9.02784 5.44621 9.16514 5.30891L 9.25668 5.17162C 9.21091 5.21739 9.16513 5.2174 9.0736 5.2174C 8.43287 5.03434 6.78527 4.25628 4.72577 3.02058C 2.66627 1.78489 0.881377 0.640727 0.606777 0.137294C 0.606777 0.0915276 0.561022 0.0457666 0.561022 0L 0.423728 0.0915388ZM 8.70747 5.94966C 8.6617 5.99542 8.61595 5.99541 8.52442 5.99541C 7.97522 5.94965 6.23609 5.0801 4.17659 3.84441C 1.79673 2.42564 -0.171249 1.0984 0.0118171 0.778038L 0.0576005 0.686499C -0.125466 1.28146 3.94776 3.61557 4.17659 3.75287C 6.55646 5.2174 8.5244 6.08695 8.70747 5.85812L 8.70747 5.94966Z" transform="translate(3.71326 7.46777)" fill="#FCD856"></path>
							</g>
							</g>
							<g id="Group_7">
							<g id="x3C Path x3E  551">
							<path id="Vector_4" d="M 4.34783 1.14415C 6.17849 1.14415 7.78031 0.869571 8.51258 0.503438L 8.78719 0.0457722C 8.14646 0.411905 6.40732 0.778021 4.34783 0.686488C 2.65446 0.686488 0.823799 0.503421 0 -1.11735e-05L 0.411911 0.549194C 1.05264 0.961093 2.746 1.14415 4.34783 1.14415Z" transform="translate(4.04553 12.5479)" fill="#FCD856"></path>
							</g>
							<g id="x3C Path x3E  550">
							<path id="Vector_5" d="M 4.53089 0.823793C 3.34096 0.823793 2.42562 0.778043 1.60182 0.640744C 0.869554 0.503444 0.320372 0.228839 0.0457722 0.0915388L -1.11735e-05 0C 0.137289 0.0915332 0.778038 0.366138 1.6476 0.549205C 2.42564 0.686505 3.34096 0.732254 4.53089 0.732254C 5.58353 0.732254 6.5904 0.686505 7.36843 0.549205C 8.14646 0.411905 8.78718 0.228822 9.01602 0.0457554L 8.92448 0.183078C 8.83294 0.274611 8.10069 0.503444 7.36843 0.640744C 6.5904 0.732277 5.58353 0.823793 4.53089 0.823793ZM 4.53089 1.2357C 3.47826 1.2357 2.47141 1.18994 1.73914 1.00687C 1.18994 0.915338 0.823793 0.778043 0.549194 0.640744L 0.457655 0.503421C 0.640721 0.640721 1.05263 0.778032 1.7849 0.915332C 2.56293 1.05263 3.52402 1.0984 4.57665 1.14417C 5.58351 1.14417 6.54461 1.09839 7.32264 0.961087C 7.96338 0.823788 8.74141 0.640744 8.92448 0.411911L 8.78718 0.59496C 8.55835 0.778027 7.96339 0.961093 7.36843 1.05263C 6.54463 1.18993 5.53776 1.2357 4.53089 1.2357Z" transform="translate(3.86243 12.502)" fill="#FCD856"></path>
							</g>
							</g>
							<g id="Group_8">
							<g id="x3C Path x3E  549">
							<path id="Vector_6" d="M 4.98855 1.32723C 6.68191 1.32723 8.83294 1.0984 10.0229 0.594971L 10.0229 0.183061C 9.29061 0.59496 6.91075 0.869577 4.98855 0.915343C 2.70022 0.915343 0.823804 0.594977 5.58674e-06 1.11735e-05L 5.58674e-06 0.549188C 1.46454 1.18992 3.02058 1.32723 4.98855 1.32723Z" transform="translate(3.45056 9.93945)" fill="#FCD856"></path>
							</g>
							<g id="Group_9">
							<path id="x3C Path x3E  548" d="M 10.206 0.137294C 10.1602 0.183061 9.38215 0.503433 8.19222 0.686499C 7.41418 0.823799 6.36156 0.915332 5.08009 0.915332C 3.84439 0.915332 2.8833 0.823788 2.10526 0.732254C 0.869565 0.549188 0.274611 0.274611 1.11735e-05 0.183078C 1.11735e-05 0.137311 1.11735e-05 0.091522 1.11735e-05 0.0457554C 0.68651 0.320355 1.373 0.503427 2.10526 0.59496C 2.83753 0.686493 3.84441 0.778038 5.03434 0.778038C 6.3158 0.778038 7.32265 0.640738 8.10068 0.549205C 9.29061 0.366138 10.0229 0.0915332 10.1144 0L 10.1144 0.137294L 10.206 0.137294Z" transform="translate(3.31323 10.4429)" fill="#FCD856"></path>
							</g>
							<g id="Group_10">
							<path id="x3C Path x3E  547" d="M 10.206 0.778027C 10.1602 0.823793 9.38215 1.14417 8.19222 1.32723C 7.41418 1.46453 6.36156 1.55606 5.08009 1.55606C 3.84439 1.55606 2.8833 1.46452 2.10526 1.37299C 0.869565 1.18992 0.274611 0.915343 1.11735e-05 0.82381C 1.11735e-05 0.778043 1.11735e-05 0.732254 1.11735e-05 0.686488C 0.68651 0.961087 1.373 1.14416 2.10526 1.23569C 2.83753 1.32723 3.84441 1.41877 5.03434 1.41877C 6.3158 1.41877 7.32265 1.28147 8.10068 1.18994C 9.29061 1.00687 10.0229 0.732266 10.1144 0.640732L 10.1144 0.778027L 10.206 0.778027ZM 10.206 0.320361C 10.0687 0.411894 9.19909 0.640744 8.05492 0.82381C 7.27689 0.915343 6.31578 1.05264 5.12585 1.05264C 3.98168 1.05264 3.02061 0.961099 2.28834 0.869565C 1.14418 0.732266 0.0457666 0.183066 0.0457666 0.183066L 0.0457666 -1.11735e-05C 0.0457666 -1.11735e-05 1.09841 0.549205 2.28834 0.732271C 3.02061 0.823804 3.98168 0.915321 5.12585 0.915321C 6.36155 0.915321 7.27689 0.823788 8.05492 0.686488C 9.19909 0.549188 10.1144 0.228844 10.206 0.137311L 10.206 0.320361Z" transform="translate(3.31323 9.80176)" fill="#FCD856"></path>
							</g>
							</g>
							<g id="Group_11">
							<g id="x3C Path x3E  546">
							<path id="Vector_7" d="M 4.53088 1.05264C 6.04118 1.05264 7.9634 0.823793 9.01603 0.411894L 8.7872 0.0457666C 8.14647 0.411899 6.27002 0.640744 4.48513 0.68651C 2.42563 0.68651 0.961104 0.457677 0.228839 1.11735e-05L 5.58674e-06 0.411894C 1.41877 0.915326 2.79175 1.05264 4.53088 1.05264Z" transform="translate(3.9082 7.65039)" fill="#FCD856"></path>
							</g>
							<g id="x3C Path x3E  545">
							<path id="Vector_8" d="M 9.10754 0.503427C 9.06178 0.549194 8.37529 0.82381 7.32266 1.00688C 6.63616 1.09841 5.67505 1.18993 4.53088 1.18993C 3.43248 1.18993 2.56292 1.09841 1.87643 1.00688C 0.778027 0.82381 0.228839 0.59496 5.58674e-06 0.503427C 5.58674e-06 0.45766 0.045761 0.457655 0.045761 0.411888C 0.640727 0.640721 1.23569 0.778038 1.87643 0.915338C 2.56292 1.00687 3.43248 1.09839 4.53088 1.09839C 5.67505 1.09839 6.59038 1.00687 7.27688 0.915338C 8.32951 0.732271 8.9245 0.503421 9.01603 0.411888L 9.10754 0.503427ZM 8.92449 0.1373C 8.78719 0.228833 8.23799 0.411899 7.23112 0.594966C 6.54462 0.686499 5.67506 0.778043 4.57667 0.778043C 3.52403 0.778043 2.65445 0.686499 2.01372 0.594966C 1.32722 0.503433 0.778038 0.320366 0.228839 0.1373C 0.228839 0.0915332 0.274594 0.0915276 0.274594 0.045761C 0.411894 0.137294 0.961088 0.320361 2.01372 0.503427C 2.65445 0.59496 3.52403 0.640721 4.57667 0.640721C 5.67506 0.640721 6.54464 0.549205 7.18537 0.457672C 8.19223 0.320372 8.74142 0.0457722 8.83295 5.58674e-06L 8.92449 0.1373Z" transform="translate(3.9082 7.55908)" fill="#FCD856"></path>
							</g>
							</g>
							<g id="Group_12">
							<path id="Vector_9" d="M 4.94278 -5.58674e-06C 2.24255 -5.58674e-06 -5.58674e-06 2.19679 -5.58674e-06 4.94278C -5.58674e-06 7.64301 2.19679 9.8856 4.94278 9.8856C 7.64301 9.8856 9.8856 7.68878 9.8856 4.94278C 9.8856 2.19679 7.64301 -5.58674e-06 4.94278 -5.58674e-06ZM 4.94278 9.38215C 2.47139 9.38215 0.503444 7.36841 0.503444 4.94278C 0.503444 2.47139 2.51715 0.503444 4.94278 0.503444C 7.41418 0.503444 9.38215 2.51715 9.38215 4.94278C 9.38215 7.36841 7.41418 9.38215 4.94278 9.38215Z" transform="translate(3.49634 5.31689)" fill="#FCD856"></path>
							<g id="Group_13">
							<path id="Vector_10" d="M 9.97712 4.98855C 9.97712 7.73454 7.73454 9.97712 4.98855 9.97712C 2.24255 9.97712 5.58674e-06 7.73454 5.58674e-06 4.98855C 5.58674e-06 2.24255 2.24255 5.58674e-06 4.98855 5.58674e-06C 7.73454 5.58674e-06 9.97712 2.24255 9.97712 4.98855ZM 4.98855 0.0915444C 2.28832 0.0915444 0.0915444 2.28832 0.0915444 4.98855C 0.0915444 7.68878 2.28832 9.88558 4.98855 9.88558C 7.68878 9.88558 9.88558 7.68878 9.88558 4.98855C 9.88558 2.28832 7.68878 0.0915444 4.98855 0.0915444Z" transform="translate(3.45056 5.271)" fill="#FCD856"></path>
							</g>
							<g id="Group_14">
							<path id="Vector_11" d="M 8.97027 4.48588C 8.97027 6.95728 6.95651 8.97103 4.48512 8.97103C 2.01372 8.97103 -5.58674e-06 6.95728 -5.58674e-06 4.48588C -5.58674e-06 2.01448 2.01372 0.000759338 4.48512 0.000759338C 6.95651 -0.0450073 8.97027 1.96872 8.97027 4.48588ZM 4.48512 0.0465427C 2.05949 0.0465427 0.0915332 2.0145 0.0915332 4.44013C 0.0915332 6.86576 2.05949 8.83371 4.48512 8.83371C 6.91075 8.83371 8.87873 6.86576 8.87873 4.44013C 8.87873 2.06026 6.91075 0.0465427 4.48512 0.0465427Z" transform="translate(3.95398 5.77393)" fill="#FCD856"></path>
							</g>
							</g>
							<g id="Group_15">
							<g id="x3C Path x3E  544">
							<path id="Vector_12" d="M 4.94279 -5.58674e-06C 7.00229 -5.58674e-06 9.19907 0.274611 10.0229 0.732277L 10.0229 1.28145C 9.29061 0.869554 7.27689 0.457666 4.94279 0.549199C 3.0206 0.549199 1.00687 0.778038 5.58674e-06 1.32724L 5.58674e-06 0.732277C 0.823804 0.228844 3.1579 -5.58674e-06 4.94279 -5.58674e-06Z" transform="translate(3.45056 9.20703)" fill="#FCD856"></path>
							</g>
							<g id="x3C Path x3E  543">
							<path id="Vector_13" d="M 5.08008 0.457672C 6.27001 0.457672 7.4142 0.503438 8.32953 0.686505C 9.19909 0.823804 10.0686 1.09841 10.2059 1.23571L 10.2059 1.41876C 9.93135 1.23569 9.24486 1.00685 8.32953 0.869554C 7.4142 0.686488 6.27003 0.640721 5.12586 0.640721C 3.79863 0.640721 2.74598 0.686488 1.87642 0.869554C 0.915321 1.05262 0.274605 1.32723 0.0915388 1.41876L 0.0915388 1.23571C 0.411905 1.05264 1.00687 0.86956 1.83066 0.73226C 2.70023 0.549194 3.75285 0.503438 5.08008 0.457672ZM 5.08008 5.58674e-06C 6.22425 5.58674e-06 7.32267 0.0457722 8.19223 0.228839C 8.87873 0.366138 9.93136 0.594977 10.1602 0.778043L 10.1602 1.00688C 9.93136 0.778043 8.87871 0.503433 8.14645 0.366133C 7.27688 0.228833 6.22425 0.1373 5.08008 0.1373C 3.89015 0.1373 2.79177 0.228833 1.9222 0.366133C 1.0984 0.503433 0.228833 0.732254 0 0.869554L 0 0.686505C 0.320366 0.503438 1.28145 0.366138 1.87642 0.228839C 2.74598 0.0457722 3.84438 5.58674e-06 5.08008 5.58674e-06Z" transform="translate(3.35901 9.16113)" fill="#FCD856"></path>
							</g>
							</g>
							<g id="Group_16">
							<g id="x3C Path x3E  542">
							<path id="Vector_14" d="M 4.43935 5.58674e-06C 6.31578 5.58674e-06 7.91762 0.274588 8.64988 0.640721L 8.9245 1.09839C 8.28377 0.732254 6.54461 0.366138 4.43935 0.457672C 2.74599 0.457672 0.915343 0.640738 1.11735e-05 1.14417L 0.320355 0.594966C 1.05262 0.183066 2.83752 5.58674e-06 4.43935 5.58674e-06Z" transform="translate(3.99976 6.87305)" fill="#FCD856"></path>
							</g>
							<g id="x3C Path x3E  541">
							<path id="Vector_15" d="M 4.43935 0.457655C 5.49198 0.457655 6.54462 0.503433 7.36842 0.640732C 8.14645 0.778032 8.83295 1.00687 8.97025 1.0984L 9.06179 1.23569C 8.83296 1.05263 8.19222 0.869571 7.36842 0.732271C 6.54462 0.594971 5.53776 0.549194 4.48513 0.549194C 3.2952 0.549194 2.33409 0.594971 1.55606 0.732271C 0.73226 0.869571 0.137311 1.09839 1.11735e-05 1.23569L 0.091522 1.0984C 0.366122 0.961099 0.823793 0.778032 1.55606 0.640732C 2.33409 0.503433 3.24942 0.457655 4.43935 0.457655ZM 4.43935 -1.11735e-05C 5.44621 -1.11735e-05 6.4531 0.0457666 7.23113 0.183066C 7.87186 0.320366 8.46683 0.503433 8.69567 0.640732L 8.83296 0.82381C 8.64989 0.594977 7.87186 0.411905 7.23113 0.274605C 6.4531 0.137305 5.492 0.0915276 4.48513 0.0915276C 3.4325 0.0915276 2.42563 0.137294 1.6476 0.320361C 0.915332 0.45766 0.457677 0.640738 0.228844 0.732271L 0.320355 0.594977C 0.594955 0.457677 1.05264 0.320355 1.60184 0.228822C 2.37987 0.091522 3.38672 -1.11735e-05 4.43935 -1.11735e-05Z" transform="translate(3.99976 6.82715)" fill="#FCD856"></path>
							</g>
							<g id="Group_17">
							<path id="x3C Path x3E  540" d="M 4.43935 0.457655C 5.49198 0.457655 6.54462 0.503433 7.36842 0.640732C 8.14645 0.778032 8.83295 1.00687 8.97025 1.0984L 9.06179 1.23569C 8.83296 1.05263 8.19222 0.869571 7.36842 0.732271C 6.54462 0.594971 5.53776 0.549194 4.48513 0.549194C 3.2952 0.549194 2.33409 0.594971 1.55606 0.732271C 0.73226 0.869571 0.137311 1.09839 1.11735e-05 1.23569L 0.091522 1.0984C 0.366122 0.961099 0.823793 0.778032 1.55606 0.640732C 2.33409 0.503433 3.24942 0.457655 4.43935 0.457655ZM 4.43935 -1.11735e-05C 5.44621 -1.11735e-05 6.4531 0.0457666 7.23113 0.183066C 7.87186 0.320366 8.46683 0.503433 8.69567 0.640732L 8.83296 0.82381C 8.64989 0.594977 7.87186 0.411905 7.23113 0.274605C 6.4531 0.137305 5.492 0.0915276 4.48513 0.0915276C 3.4325 0.0915276 2.42563 0.137294 1.6476 0.320361C 0.915332 0.45766 0.457677 0.640738 0.228844 0.732271L 0.320355 0.594977C 0.594955 0.457677 1.05264 0.320355 1.60184 0.228822C 2.37987 0.091522 3.38672 -1.11735e-05 4.43935 -1.11735e-05Z" transform="translate(3.99976 6.82715)" fill="#FCD856"></path>
							</g>
							</g>
							<g id="Group_18">
							<g id="x3C Path x3E  539">
							<path id="Vector_16" d="M 4.43936 -1.11735e-05C 5.94966 -1.11735e-05 7.87185 0.228833 8.92448 0.640732L 8.69565 1.00686C 8.05492 0.640727 6.1785 0.411911 4.3936 0.366144C 2.33411 0.366144 0.915338 0.59496 0.183072 1.00686L -5.58674e-06 0.686488C 1.32723 0.137289 2.70023 -1.11735e-05 4.43936 -1.11735e-05Z" transform="translate(3.95398 11.8613)" fill="#FCD856"></path>
							</g>
							<g id="Group_19">
							<path id="x3C Path x3E  538" d="M 9.0618 0.640732L 8.97026 0.778027C 8.87873 0.686493 8.32953 0.457672 7.23113 0.274605C 6.54463 0.183072 5.6293 0.0915276 4.48514 0.0915276C 3.38674 0.0915276 2.51717 0.183072 1.87644 0.274605C 1.2357 0.366138 0.640738 0.503427 0.0457722 0.778027C 0.0457722 0.73226 -1.11735e-05 0.732254 -1.11735e-05 0.686488C 0.228822 0.594955 0.778038 0.366133 1.87644 0.183066C 2.56294 0.0915332 3.43249 -1.11735e-05 4.53089 -1.11735e-05C 5.67506 -1.11735e-05 6.59039 0.0915332 7.27689 0.183066C 8.32952 0.320366 9.01603 0.549199 9.0618 0.640732ZM 8.69564 1.0984C 8.46681 1.00687 7.96339 0.778021 7.1396 0.686488C 6.4531 0.594955 5.62929 0.503438 4.53089 0.503438C 3.47826 0.503438 2.65446 0.549199 2.01373 0.640732C 0.961099 0.778032 0.457672 1.00687 0.274605 1.0984C 0.274605 1.05263 0.228822 1.05263 0.228822 1.00686C 0.411888 0.915326 0.961099 0.686493 2.01373 0.549194C 2.65446 0.45766 3.52403 0.366144 4.53089 0.366144C 5.62929 0.366144 6.49886 0.45766 7.1396 0.549194C 7.96339 0.686493 8.51259 0.823804 8.74143 0.961104L 8.69564 1.0984Z" transform="translate(3.86243 11.8613)" fill="#FCD856"></path>
							</g>
							</g>
							<g id="Group_20">
							<g id="Group_21">
							<path id="Vector_17" d="M 0.0915388 -1.11735e-05L 0 -1.11735e-05L 0 10.0229L 0.0915388 10.0229L 0.0915388 -1.11735e-05Z" transform="translate(8.62219 5.2251)" fill="#FCD856"></path>
							</g>
							<g id="Group_22">
							<path id="Vector_18" d="M 0.091522 -1.11735e-05L 1.11735e-05 -1.11735e-05L 1.11735e-05 10.0229L 0.091522 10.0229L 0.091522 -1.11735e-05Z" transform="translate(8.11877 5.2251)" fill="#FCD856"></path>
							</g>
							<g id="Group_23">
							<path id="Vector_19" d="M 0.411888 -5.58674e-06L 5.58674e-06 -5.58674e-06L 5.58674e-06 9.8856L 0.411888 9.8856L 0.411888 -5.58674e-06Z" transform="translate(8.2561 5.31689)" fill="#FCD856"></path>
							</g>
							</g>
							<g id="Group_24">
							<g id="x3C Path x3E  537">
							<path id="Vector_20" d="M 0.411911 0C 1.96798 0 9.06178 4.34783 9.06178 5.12586L 8.60412 5.81236C 8.42105 4.89703 1.18993 0.640721 0 0.732254L 0.411911 0Z" transform="translate(3.81665 7.46729)" fill="#FCD856"></path>
							</g>
							<g id="x3C Path x3E  536">
							<path id="Vector_21" d="M 0.0915332 0.784781C 0.366133 0.601715 2.4714 1.51705 4.66819 2.84428C 6.86499 4.17151 8.9245 5.6818 8.74143 5.9564L 8.69565 6.04794L 8.64989 6.04794C 8.64989 6.04794 8.69566 6.00218 8.64989 5.91065C 8.55836 5.59028 7.09383 4.40035 4.62244 2.93582C 2.24257 1.51705 0.228827 0.647487 -5.58674e-06 0.87632L 0.0915332 0.784781ZM 9.24485 5.2699C 9.42792 4.90377 7.45997 3.43925 5.0801 2.02048C 2.60871 0.60172 0.82381 -0.222073 0.503444 0.0525267L 0.411905 0.189821C 0.457672 0.144054 0.549188 0.144038 0.594955 0.144038C 1.14415 0.144038 2.746 0.876314 4.98856 2.15778C 5.94966 2.75274 9.15333 4.76649 9.10756 5.31569C 9.10756 5.36145 9.10756 5.36143 9.10756 5.4072L 9.24485 5.2699Z" transform="translate(3.7251 7.36914)" fill="#FCD856"></path>
							</g>
							</g>
							</g>
							<g id="Group_25">
							<g id="Group_26">
							<path id="x3C Path x3E  535" d="M -1.11735e-05 3.9817C -1.11735e-05 4.8055 0.320366 5.53776 0.869565 6.0412C 1.41876 6.5904 2.15103 6.91075 2.92906 6.91075C 3.75286 6.91075 4.48512 6.5904 5.03432 6.0412C 5.58351 5.492 5.90389 4.75972 5.90389 3.93592L 5.90389 0L -1.11735e-05 0L -1.11735e-05 3.9817Z" transform="translate(5.46423 6.78125)" fill="white"></path>
							</g>
							<g id="x3C Path x3E  534">
							<path id="Vector_22" d="M 1.11735e-05 3.8444C 1.11735e-05 4.62243 0.320372 5.30891 0.823804 5.85811C 1.32724 6.36155 2.05949 6.68193 2.83752 6.68193C 3.61555 6.68193 4.34783 6.36155 4.85126 5.85811C 5.35469 5.35468 5.67505 4.62243 5.67505 3.8444L 5.67505 -5.58674e-06L 1.11735e-05 -5.58674e-06L 1.11735e-05 3.8444Z" transform="translate(5.60156 6.91846)" fill="#CE1126"></path>
							</g>
							<g id="x3C Path x3E  533">
							<path id="Vector_23" d="M 1.11735e-05 2.47139C 1.11735e-05 2.97482 0.183066 3.43248 0.503433 3.75285C 0.823799 4.07322 1.23569 4.30206 1.69335 4.30206C 2.15102 4.30206 2.56294 4.11898 2.8833 3.75285C 3.20367 3.43248 3.38672 2.97482 3.38672 2.47139L 3.38672 1.11735e-05L 0.0457666 1.11735e-05L 1.11735e-05 2.47139Z" transform="translate(6.74573 8.1084)" fill="white"></path>
							</g>
							<g id="Group_27">
							<g id="x3C Path x3E  532">
							<path id="Vector_24" d="M -5.58674e-06 0.549205C -5.58674e-06 0.640738 0.0457666 0.778027 0.0915332 0.823793C 0.1373 0.915326 0.228822 0.961087 0.366122 0.961087C 0.457655 0.961087 0.549205 0.915326 0.640738 0.823793C 0.686505 0.73226 0.732277 0.640738 0.732277 0.549205L 0.732277 0L -5.58674e-06 0L -5.58674e-06 0.549205Z" transform="translate(8.07288 9.75635)" fill="#0072C6"></path>
							</g>
							<g id="Group_28">
							<g id="x3C Path x3E  531">
							<path id="Vector_25" d="M 0.0915332 -5.58674e-06C 0.0457666 -5.58674e-06 -5.58674e-06 0.0457666 -5.58674e-06 0.0915332C -5.58674e-06 0.1373 0.0457666 0.183072 0.0915332 0.183072C 0.1373 0.183072 0.183072 0.1373 0.183072 0.0915332C 0.183072 0.0457666 0.1373 -5.58674e-06 0.0915332 -5.58674e-06Z" transform="translate(8.53052 9.89307)" fill="white"></path>
							</g>
							<g id="x3C Path x3E  530">
							<path id="Vector_26" d="M 0.091522 5.58674e-06C 0.0457554 5.58674e-06 1.11735e-05 0.0457778 1.11735e-05 0.0915444C 1.11735e-05 0.137311 0.0457554 0.183055 0.091522 0.183055C 0.137289 0.183055 0.183061 0.137311 0.183061 0.0915444C 0.183061 0.0457778 0.137289 5.58674e-06 0.091522 5.58674e-06Z" transform="translate(8.34753 10.0762)" fill="white"></path>
							</g>
							<g id="x3C Path x3E  529">
							<path id="Vector_27" d="M 0.0915332 5.58674e-06C 0.0457666 5.58674e-06 -5.58674e-06 0.0457778 -5.58674e-06 0.0915444C -5.58674e-06 0.137311 0.0457666 0.183055 0.0915332 0.183055C 0.1373 0.183055 0.183072 0.137311 0.183072 0.0915444C 0.183072 0.0457778 0.1373 5.58674e-06 0.0915332 5.58674e-06Z" transform="translate(8.53052 10.3047)" fill="white"></path>
							</g>
							<g id="x3C Path x3E  528">
							<path id="Vector_28" d="M 0.0915388 5.58674e-06C 0.0457722 5.58674e-06 0 0.0457778 0 0.0915444C 0 0.137311 0.0457722 0.183055 0.0915388 0.183055C 0.137305 0.183055 0.183078 0.137311 0.183078 0.0915444C 0.137311 0.0457778 0.137305 5.58674e-06 0.0915388 5.58674e-06Z" transform="translate(8.16443 10.3047)" fill="white"></path>
							</g>
							<g id="x3C Path x3E  527">
							<path id="Vector_29" d="M 0.0915388 -5.58674e-06C 0.0457722 -5.58674e-06 0 0.0457666 0 0.0915332C 0 0.1373 0.0457722 0.183072 0.0915388 0.183072C 0.137305 0.183072 0.183078 0.1373 0.183078 0.0915332C 0.137311 0.0457666 0.137305 -5.58674e-06 0.0915388 -5.58674e-06Z" transform="translate(8.16443 9.89307)" fill="white"></path>
							</g>
							</g>
							</g>
							<g id="Group_29">
							<g id="x3C Path x3E  526">
							<path id="Vector_30" d="M 0 0.549205C 0 0.640738 0.0457722 0.778027 0.0915388 0.823793C 0.137305 0.915326 0.228827 0.961087 0.366127 0.961087C 0.503427 0.961087 0.54921 0.915326 0.640744 0.823793C 0.68651 0.73226 0.732254 0.640738 0.732254 0.549205L 0.732254 0L 0 0L 0 0.549205Z" transform="translate(7.02026 9.75635)" fill="#0072C6"></path>
							</g>
							<g id="Group_30">
							<g id="x3C Path x3E  521">
							<path id="Vector_31" d="M 0.0915276 -5.58674e-06C 0.045761 -5.58674e-06 -1.11735e-05 0.0457666 -1.11735e-05 0.0915332C -1.11735e-05 0.1373 0.045761 0.183072 0.0915276 0.183072C 0.137294 0.183072 0.183066 0.1373 0.183066 0.0915332C 0.1373 0.0457666 0.137294 -5.58674e-06 0.0915276 -5.58674e-06Z" transform="translate(7.52368 9.89307)" fill="white"></path>
							</g>
							<g id="x3C Path x3E  515">
							<path id="Vector_32" d="M 0.0915276 5.58674e-06C 0.045761 5.58674e-06 -1.11735e-05 0.0457778 -1.11735e-05 0.0915444C -1.11735e-05 0.137311 0.045761 0.183055 0.0915276 0.183055C 0.137294 0.183055 0.183066 0.137311 0.183066 0.0915444C 0.183066 0.0457778 0.137294 5.58674e-06 0.0915276 5.58674e-06Z" transform="translate(7.29492 10.0762)" fill="white"></path>
							</g>
							<g id="x3C Path x3E  511">
							<path id="Vector_33" d="M 0.0915276 5.58674e-06C 0.045761 5.58674e-06 -1.11735e-05 0.0457778 -1.11735e-05 0.0915444C -1.11735e-05 0.137311 0.045761 0.183055 0.0915276 0.183055C 0.137294 0.183055 0.183066 0.137311 0.183066 0.0915444C 0.1373 0.0457778 0.137294 5.58674e-06 0.0915276 5.58674e-06Z" transform="translate(7.52368 10.3047)" fill="white"></path>
							</g>
							<g id="x3C Path x3E  505">
							<path id="Vector_34" d="M 0.0915444 5.58674e-06C 0.0457778 5.58674e-06 5.58674e-06 0.0457778 5.58674e-06 0.0915444C 5.58674e-06 0.137311 0.0457778 0.183055 0.0915444 0.183055C 0.137311 0.183055 0.183055 0.137311 0.183055 0.0915444C 0.183055 0.0457778 0.137311 5.58674e-06 0.0915444 5.58674e-06Z" transform="translate(7.11182 10.3047)" fill="white"></path>
							</g>
							<g id="x3C Path x3E  504">
							<path id="Vector_35" d="M 0.0915444 -5.58674e-06C 0.0457778 -5.58674e-06 5.58674e-06 0.0457666 5.58674e-06 0.0915332C 5.58674e-06 0.1373 0.0457778 0.183072 0.0915444 0.183072C 0.137311 0.183072 0.183055 0.1373 0.183055 0.0915332C 0.183055 0.0457666 0.137311 -5.58674e-06 0.0915444 -5.58674e-06Z" transform="translate(7.11182 9.89307)" fill="white"></path>
							</g>
							</g>
							</g>
							<g id="Group_31">
							<g id="x3C Path x3E  499">
							<path id="Vector_36" d="M -1.11735e-05 0.549205C -1.11735e-05 0.640738 0.045761 0.778027 0.0915276 0.823793C 0.137294 0.915326 0.274611 0.961087 0.366144 0.961087C 0.457677 0.961087 0.549199 0.915326 0.640732 0.823793C 0.686499 0.73226 0.732271 0.640738 0.732271 0.549205L 0.732271 0L -1.11735e-05 0L -1.11735e-05 0.549205Z" transform="translate(9.12561 9.75635)" fill="#0072C6"></path>
							</g>
							<g id="Group_32">
							<g id="x3C Path x3E  498">
							<path id="Vector_37" d="M 0.0915276 -5.58674e-06C 0.045761 -5.58674e-06 -1.11735e-05 0.0457666 -1.11735e-05 0.0915332C -1.11735e-05 0.1373 0.045761 0.183072 0.0915276 0.183072C 0.137294 0.183072 0.183066 0.1373 0.183066 0.0915332C 0.183066 0.0457666 0.137294 -5.58674e-06 0.0915276 -5.58674e-06Z" transform="translate(9.58325 9.89307)" fill="white"></path>
							</g>
							<g id="x3C Path x3E  490">
							<path id="Vector_38" d="M 0.0915444 5.58674e-06C 0.0457778 5.58674e-06 5.58674e-06 0.0457778 5.58674e-06 0.0915444C 5.58674e-06 0.137311 0.0457778 0.183055 0.0915444 0.183055C 0.137311 0.183055 0.183055 0.137311 0.183055 0.0915444C 0.137289 0.0457778 0.0915444 5.58674e-06 0.0915444 5.58674e-06Z" transform="translate(9.40027 10.0762)" fill="white"></path>
							</g>
							<g id="x3C Path x3E  485">
							<path id="Vector_39" d="M 0.0915276 5.58674e-06C 0.045761 5.58674e-06 -1.11735e-05 0.0457778 -1.11735e-05 0.0915444C -1.11735e-05 0.137311 0.045761 0.183055 0.0915276 0.183055C 0.137294 0.183055 0.183066 0.137311 0.183066 0.0915444C 0.183066 0.0457778 0.137294 5.58674e-06 0.0915276 5.58674e-06Z" transform="translate(9.58325 10.3047)" fill="white"></path>
							</g>
							<g id="x3C Path x3E  484">
							<path id="Vector_40" d="M 0.0915444 5.58674e-06C 0.0457778 5.58674e-06 5.58674e-06 0.0457778 5.58674e-06 0.0915444C 5.58674e-06 0.137311 0.0457778 0.183055 0.0915444 0.183055C 0.137311 0.183055 0.183055 0.137311 0.183055 0.0915444C 0.183055 0.0457778 0.137311 5.58674e-06 0.0915444 5.58674e-06Z" transform="translate(9.17139 10.3047)" fill="white"></path>
							</g>
							<g id="x3C Path x3E  476">
							<path id="Vector_41" d="M 0.0915444 -5.58674e-06C 0.0457778 -5.58674e-06 5.58674e-06 0.0457666 5.58674e-06 0.0915332C 5.58674e-06 0.1373 0.0457778 0.183072 0.0915444 0.183072C 0.137311 0.183072 0.183055 0.1373 0.183055 0.0915332C 0.183055 0.0457666 0.137311 -5.58674e-06 0.0915444 -5.58674e-06Z" transform="translate(9.17139 9.89307)" fill="white"></path>
							</g>
							</g>
							</g>
							<g id="Group_33">
							<g id="x3C Path x3E  471">
							<path id="Vector_42" d="M -5.58674e-06 0.549199C -5.58674e-06 0.640732 0.0457666 0.778021 0.0915332 0.823788C 0.1373 0.915321 0.228822 0.96111 0.366122 0.96111C 0.457655 0.96111 0.549205 0.915321 0.640738 0.823788C 0.686505 0.732255 0.732277 0.640732 0.732277 0.549199L 0.732277 -5.58674e-06L -5.58674e-06 -5.58674e-06L -5.58674e-06 0.549199Z" transform="translate(8.07288 11.0376)" fill="#0072C6"></path>
							</g>
							<g id="Group_34">
							<g id="x3C Path x3E  470">
							<path id="Vector_43" d="M 0.0915332 0C 0.0457666 0 -5.58674e-06 0.0457722 -5.58674e-06 0.0915388C -5.58674e-06 0.137305 0.0457666 0.183078 0.0915332 0.183078C 0.1373 0.183078 0.183072 0.137305 0.183072 0.0915388C 0.183072 0.0457722 0.1373 0 0.0915332 0Z" transform="translate(8.53052 11.1289)" fill="white"></path>
							</g>
							<g id="x3C Path x3E  462">
							<path id="Vector_44" d="M 0.091522 0C 0.0457554 0 1.11735e-05 0.0457722 1.11735e-05 0.0915388C 1.11735e-05 0.137305 0.0457554 0.183078 0.091522 0.183078C 0.137289 0.183078 0.183061 0.137305 0.183061 0.0915388C 0.183061 5.58538e-06 0.137289 0 0.091522 0Z" transform="translate(8.34753 11.3579)" fill="white"></path>
							</g>
							<g id="x3C Path x3E  457">
							<path id="Vector_45" d="M 0.0915332 1.11735e-05C 0.0457666 1.11735e-05 -5.58674e-06 0.0457554 -5.58674e-06 0.091522C -5.58674e-06 0.137289 0.0457666 0.183061 0.0915332 0.183061C 0.1373 0.183061 0.183072 0.137289 0.183072 0.091522C 0.183072 0.0457554 0.1373 1.11735e-05 0.0915332 1.11735e-05Z" transform="translate(8.53052 11.5405)" fill="white"></path>
							</g>
							<g id="x3C Path x3E  456">
							<path id="Vector_46" d="M 0.0915388 1.11735e-05C 0.0457722 1.11735e-05 0 0.0457554 0 0.091522C 0 0.137289 0.0457722 0.183061 0.0915388 0.183061C 0.137305 0.183061 0.183078 0.137289 0.183078 0.091522C 0.137311 0.0457554 0.137305 1.11735e-05 0.0915388 1.11735e-05Z" transform="translate(8.16443 11.5405)" fill="white"></path>
							</g>
							<g id="x3C Path x3E  448">
							<path id="Vector_47" d="M 0.0915388 0C 0.0457722 0 0 0.0457722 0 0.0915388C 0 0.137305 0.0457722 0.183078 0.0915388 0.183078C 0.137305 0.183078 0.183078 0.137305 0.183078 0.0915388C 0.137311 0.0457722 0.137305 0 0.0915388 0Z" transform="translate(8.16443 11.1289)" fill="white"></path>
							</g>
							</g>
							</g>
							<g id="Group_35">
							<g id="x3C Path x3E  443">
							<path id="Vector_48" d="M -5.58674e-06 0.549199C -5.58674e-06 0.640732 0.0457666 0.778021 0.0915332 0.823788C 0.1373 0.915321 0.228822 0.96111 0.366122 0.96111C 0.457655 0.96111 0.549205 0.915321 0.640738 0.823788C 0.686505 0.732255 0.732277 0.640732 0.732277 0.549199L 0.732277 -5.58674e-06L -5.58674e-06 -5.58674e-06L -5.58674e-06 0.549199Z" transform="translate(8.07288 8.52051)" fill="#0072C6"></path>
							</g>
							<g id="Group_36">
							<g id="x3C Path x3E  442">
							<path id="Vector_49" d="M 0.0915332 -1.11735e-05C 0.0457666 -1.11735e-05 -5.58674e-06 0.045761 -5.58674e-06 0.0915276C -5.58674e-06 0.137294 0.0457666 0.183066 0.0915332 0.183066C 0.1373 0.183066 0.183072 0.137294 0.183072 0.0915276C 0.183072 -5.58538e-06 0.1373 -1.11735e-05 0.0915332 -1.11735e-05Z" transform="translate(8.53052 8.65771)" fill="white"></path>
							</g>
							<g id="x3C Path x3E  434">
							<path id="Vector_50" d="M 0.091522 0C 0.0457554 0 1.11735e-05 0.0457722 1.11735e-05 0.0915388C 1.11735e-05 0.137305 0.0457554 0.183078 0.091522 0.183078C 0.137289 0.183078 0.183061 0.137305 0.183061 0.0915388C 0.183061 0.0457722 0.137289 0 0.091522 0Z" transform="translate(8.34753 8.84082)" fill="white"></path>
							</g>
							<g id="x3C Path x3E  429">
							<path id="Vector_51" d="M 0.0915332 0C 0.0457666 0 -5.58674e-06 0.0457722 -5.58674e-06 0.0915388C -5.58674e-06 0.137305 0.0457666 0.183078 0.0915332 0.183078C 0.1373 0.183078 0.183072 0.137305 0.183072 0.0915388C 0.183072 5.58538e-06 0.1373 0 0.0915332 0Z" transform="translate(8.53052 9.06934)" fill="white"></path>
							</g>
							<g id="x3C Path x3E  428">
							<path id="Vector_52" d="M 0.0915388 0C 0.0457722 0 0 0.0457722 0 0.0915388C 0 0.137305 0.0457722 0.183078 0.0915388 0.183078C 0.137305 0.183078 0.183078 0.137305 0.183078 0.0915388C 0.137311 5.58538e-06 0.137305 0 0.0915388 0Z" transform="translate(8.16443 9.06934)" fill="white"></path>
							</g>
							<g id="x3C Path x3E  420">
							<path id="Vector_53" d="M 0.0915388 -1.11735e-05C 0.0457722 -1.11735e-05 0 0.045761 0 0.0915276C 0 0.137294 0.0457722 0.183066 0.0915388 0.183066C 0.137305 0.183066 0.183078 0.137294 0.183078 0.0915276C 0.137311 -5.58538e-06 0.137305 -1.11735e-05 0.0915388 -1.11735e-05Z" transform="translate(8.16443 8.65771)" fill="white"></path>
							</g>
							</g>
							</g>
							<g id="Group_37">
							<g id="Group_38">
							<path id="x3C Path x3E  415" d="M -1.11735e-05 0.320366L 0.82381 0.320366L 0.778027 -5.58674e-06L 0.0457722 -5.58674e-06L -1.11735e-05 0.320366Z" transform="translate(10.2698 7.60498)" fill="#FCD856"></path>
							</g>
							<g id="Group_39">
							<g id="Group_40">
							<path id="Vector_54" d="M 0.183066 -5.58674e-06C 0.2746 -5.58674e-06 0.366133 0.183078 0.411899 0.274611L -1.11735e-05 0.274611C -1.11735e-05 0.183078 0.0915332 -5.58674e-06 0.183066 -5.58674e-06Z" transform="translate(10.4987 7.60498)" fill="#FCD856"></path>
							</g>
							<g id="Group_41">
							<path id="x3C Path x3E  414" d="M 0.0915332 0C 0.0915332 0 0.228827 0.0457666 0.228827 0.228833C 0.0915276 0.228833 0.0915276 0.228833 -5.58674e-06 0.228833C -5.58674e-06 0.0457666 0.0915332 0 0.0915332 0Z" transform="translate(10.5902 7.69678)" fill="#FCD856"></path>
							</g>
							</g>
							<g id="Group_42">
							<path id="x3C Path x3E  372" d="M 0.0343305 0L 0.858124 0C 0.858124 0 0.903879 -1.11742e-05 0.903879 0.0457554C 0.903879 0.0457554 0.90389 0.0915388 0.858124 0.0915388L 0.0343305 0.0915388C -0.0114361 0.0457722 -0.0114361 0.0457666 0.0343305 0C -0.0114361 0 -0.0114361 0 0.0343305 0Z" transform="translate(10.2812 7.46777)" fill="#FCD856"></path>
							</g>
							<g id="Group_43">
							<path id="x3C Path x3E  371" d="M 0.0203295 0L 0.889906 0C 0.889906 0 0.935662 -1.11742e-05 0.935662 0.0457554C 0.935662 0.0457554 0.935673 0.0915388 0.889906 0.0915388L 0.0203295 0.0915388C 0.0203295 0.0457722 -0.0254371 0.0457666 0.0203295 0C 0.0203295 0 -0.0254371 0 0.0203295 0Z" transform="translate(10.2494 7.92529)" fill="#FCD856"></path>
							</g>
							<g id="Group_44">
							<path id="x3C Path x3E  370" d="M 0.0203463 -1.11735e-05L 0.798384 -1.11735e-05C 0.798384 -1.11735e-05 0.84414 5.58538e-06 0.84414 0.0457722C 0.84414 0.0457722 0.844151 0.0915276 0.798384 0.0915276L 0.0203463 0.0915276C 0.0203463 0.0915276 -0.0254203 0.091522 0.0203463 -1.11735e-05C 0.0203463 -1.11735e-05 -0.0254203 0.0457554 0.0203463 -1.11735e-05Z" transform="translate(10.2952 7.51367)" fill="#FCD856"></path>
							</g>
							<g id="Group_45">
							<g id="x3C Path x3E  369">
							<path id="Vector_55" d="M 0.228827 -5.58674e-06L 0.228827 0.320366L -5.58674e-06 0.320366L -5.58674e-06 -5.58674e-06L 0.228827 -5.58674e-06Z" transform="translate(10.5901 7.14746)" fill="#FCD856"></path>
							</g>
							<g id="Group_46">
							<path id="x3C Path x3E  368" d="M 0.0915276 0L 0.137311 0L 0.137311 0.0457554L 0.183066 0.0457554L 0.183066 0L 0.228822 0L 0.228822 0.0457554L 0.274605 0.0457554L 0.274605 0L 0.320361 0L 0.320361 0.0915388C 0.320361 0.0915388 0.320372 0.137294 0.274605 0.137294L 0.0457722 0.137294C 0.0457722 0.137294 -1.11735e-05 0.137305 -1.11735e-05 0.0915388L -1.11735e-05 0L 0.0915276 0Z" transform="translate(10.4987 7.01025)" fill="#FCD856"></path>
							</g>
							<g id="Group_47">
							<path id="x3C Path x3E  367" d="M 0.0915276 -5.58674e-06L 0.137311 -5.58674e-06L 0.137311 0.0457778L 0.183066 0.0457778L 0.183066 -5.58674e-06L 0.228822 -5.58674e-06L 0.228822 0.0457778L 0.274605 0.0457778L 0.274605 -5.58674e-06L 0.320361 -5.58674e-06L 0.320361 0.0915332C 0.320361 0.0915332 0.320372 0.137289 0.274605 0.137289L 0.0457722 0.137289C 0.0457722 0.137289 -1.11735e-05 0.1373 -1.11735e-05 0.0915332L -1.11735e-05 -5.58674e-06L 0.0915276 -5.58674e-06Z" transform="translate(10.7274 7.14746)" fill="#FCD856"></path>
							</g>
							<g id="x3C Path x3E  366">
							<path id="Vector_56" d="M 0.183061 -1.11735e-05L 0.183061 0.183066L 1.11735e-05 0.183066L 1.11735e-05 -1.11735e-05L 0.183061 -1.11735e-05Z" transform="translate(10.8647 7.28467)" fill="#FCD856"></path>
							</g>
							<g id="Group_48">
							<path id="x3C Path x3E  365" d="M 0.0915388 -5.58674e-06L 0.137294 -5.58674e-06L 0.137294 0.0457778L 0.183078 0.0457778L 0.183078 -5.58674e-06L 0.228833 -5.58674e-06L 0.228833 0.0457778L 0.274588 0.0457778L 0.274588 -5.58674e-06L 0.320372 -5.58674e-06L 0.320372 0.0915332C 0.320372 0.0915332 0.320355 0.137289 0.274588 0.137289L 0.0457554 0.137289C 0.0457554 0.137289 0 0.1373 0 0.0915332L 0 -5.58674e-06L 0.0915388 -5.58674e-06Z" transform="translate(10.224 7.14746)" fill="#FCD856"></path>
							</g>
							<g id="x3C Path x3E  364">
							<path id="Vector_57" d="M 0.183072 -1.11735e-05L 0.183072 0.183066L -5.58674e-06 0.183066L -5.58674e-06 -1.11735e-05L 0.183072 -1.11735e-05Z" transform="translate(10.3613 7.28467)" fill="#FCD856"></path>
							</g>
							</g>
							</g>
							<g id="Group_49">
							<g id="Group_50">
							<path id="x3C Path x3E  363" d="M -1.11735e-05 0.320372L 0.82381 0.320372L 0.778027 0L 0.0457722 0L -1.11735e-05 0.320372Z" transform="translate(10.2698 9.98486)" fill="#FCD856"></path>
							</g>
							<g id="Group_51">
							<g id="Group_52">
							<path id="Vector_58" d="M 0.183066 0C 0.2746 0 0.366133 0.183055 0.411899 0.274588L -1.11735e-05 0.274588C -1.11735e-05 0.183055 0.0915332 0 0.183066 0Z" transform="translate(10.4987 9.98486)" fill="#FCD856"></path>
							</g>
							<g id="Group_53">
							<path id="x3C Path x3E  362" d="M 0.0915332 5.58674e-06C 0.0915332 5.58674e-06 0.228827 0.0457722 0.228827 0.228839C 0.0915276 0.228839 0.0915276 0.228839 -5.58674e-06 0.228839C -5.58674e-06 0.0457722 0.0915332 5.58674e-06 0.0915332 5.58674e-06Z" transform="translate(10.5902 10.0767)" fill="#FCD856"></path>
							</g>
							</g>
							<g id="Group_54">
							<path id="x3C Path x3E  361" d="M 0.0343305 5.58674e-06L 0.858124 5.58674e-06C 0.858124 5.58674e-06 0.903879 -5.58879e-06 0.903879 0.045761C 0.903879 0.045761 0.90389 0.0915444 0.858124 0.0915444L 0.0343305 0.0915444C -0.0114361 0.0457778 -0.0114361 0.0457722 0.0343305 5.58674e-06C -0.0114361 5.58674e-06 -0.0114361 5.58674e-06 0.0343305 5.58674e-06Z" transform="translate(10.2812 9.84766)" fill="#FCD856"></path>
							</g>
							<g id="Group_55">
							<path id="x3C Path x3E  360" d="M 0.0203295 5.58674e-06L 0.889906 5.58674e-06C 0.889906 5.58674e-06 0.935662 -5.58879e-06 0.935662 0.045761C 0.935662 0.045761 0.935673 0.0915444 0.889906 0.0915444L 0.0203295 0.0915444C 0.0203295 0.0457778 -0.0254371 0.0457722 0.0203295 5.58674e-06C 0.0203295 5.58674e-06 -0.0254371 5.58674e-06 0.0203295 5.58674e-06Z" transform="translate(10.2494 10.3057)" fill="#FCD856"></path>
							</g>
							<g id="Group_56">
							<path id="x3C Path x3E  359" d="M 0.0203463 -5.58674e-06L 0.798384 -5.58674e-06C 0.798384 -5.58674e-06 0.84414 1.11742e-05 0.84414 0.0457778C 0.84414 0.0457778 0.844151 0.0915332 0.798384 0.0915332L 0.0203463 0.0915332C 0.0203463 0.0915332 -0.0254203 0.045761 0.0203463 -5.58674e-06C 0.0203463 -5.58674e-06 -0.0254203 -5.58674e-06 0.0203463 -5.58674e-06Z" transform="translate(10.2952 9.89355)" fill="#FCD856"></path>
							</g>
							<g id="Group_57">
							<g id="x3C Path x3E  358">
							<path id="Vector_59" d="M 0.228827 1.11735e-05L 0.228827 0.320355L -5.58674e-06 0.320355L -5.58674e-06 1.11735e-05L 0.228827 1.11735e-05Z" transform="translate(10.5901 9.48193)" fill="#FCD856"></path>
							</g>
							<g id="Group_58">
							<path id="x3C Path x3E  357" d="M 0.0915276 5.58674e-06L 0.137311 5.58674e-06L 0.137311 0.045761L 0.183066 0.045761L 0.183066 5.58674e-06L 0.228822 5.58674e-06L 0.228822 0.045761L 0.274605 0.045761L 0.274605 5.58674e-06L 0.320361 5.58674e-06L 0.320361 0.0915444C 0.320361 0.0915444 0.320372 0.1373 0.274605 0.1373L 0.0457722 0.1373C 0.0457722 0.1373 -1.11735e-05 0.137311 -1.11735e-05 0.0915444L -1.11735e-05 5.58674e-06L 0.0915276 5.58674e-06Z" transform="translate(10.4987 9.39014)" fill="#FCD856"></path>
							</g>
							<g id="Group_59">
							<path id="x3C Path x3E  356" d="M 0.0915276 0L 0.137311 0L 0.137311 0.0457554L 0.183066 0.0457554L 0.183066 0L 0.228822 0L 0.228822 0.0457554L 0.274605 0.0457554L 0.274605 0L 0.320361 0L 0.320361 0.0915388C 0.320361 0.0915388 0.320372 0.137294 0.274605 0.137294L 0.0457722 0.137294C 0.0457722 0.137294 -1.11735e-05 0.137305 -1.11735e-05 0.0915388L -1.11735e-05 0L 0.0915276 0Z" transform="translate(10.7274 9.52734)" fill="#FCD856"></path>
							</g>
							<g id="x3C Path x3E  355">
							<path id="Vector_60" d="M 0.183061 -5.58674e-06L 0.183061 0.183072L 1.11735e-05 0.183072L 1.11735e-05 -5.58674e-06L 0.183061 -5.58674e-06Z" transform="translate(10.8647 9.66455)" fill="#FCD856"></path>
							</g>
							<g id="Group_60">
							<path id="x3C Path x3E  354" d="M 0.0915388 0L 0.137294 0L 0.137294 0.0457554L 0.183078 0.0457554L 0.183078 0L 0.228833 0L 0.228833 0.0457554L 0.274588 0.0457554L 0.274588 0L 0.320372 0L 0.320372 0.0915388C 0.320372 0.0915388 0.320355 0.137294 0.274588 0.137294L 0.0457554 0.137294C 0.0457554 0.137294 0 0.137305 0 0.0915388L 0 0L 0.0915388 0Z" transform="translate(10.224 9.52734)" fill="#FCD856"></path>
							</g>
							<g id="x3C Path x3E  353">
							<path id="Vector_61" d="M 0.183072 -5.58674e-06L 0.183072 0.183072L -5.58674e-06 0.183072L -5.58674e-06 -5.58674e-06L 0.183072 -5.58674e-06Z" transform="translate(10.3613 9.66455)" fill="#FCD856"></path>
							</g>
							</g>
							</g>
							<g id="Group_61">
							<g id="Group_62">
							<path id="x3C Path x3E  352" d="M -5.58674e-06 0.320372L 0.823788 0.320372L 0.778032 0L 0.0457778 0L -5.58674e-06 0.320372Z" transform="translate(5.78467 9.98486)" fill="#FCD856"></path>
							</g>
							<g id="Group_63">
							<g id="Group_64">
							<path id="Vector_62" d="M 0.194977 0C 0.28651 0 0.378044 0.183055 0.42381 0.274588L 0.0118997 0.274588C -0.0338669 0.183055 0.0576774 0 0.194977 0Z" transform="translate(6.00159 9.98486)" fill="#FCD856"></path>
							</g>
							<g id="Group_65">
							<path id="x3C Path x3E  351" d="M 0.100879 5.58674e-06C 0.100879 5.58674e-06 0.238173 0.0457722 0.238173 0.228839C 0.100873 0.228839 0.100873 0.228839 0.00934012 0.228839C -0.0364265 0.0457722 0.100879 5.58674e-06 0.100879 5.58674e-06Z" transform="translate(6.0957 10.0767)" fill="#FCD856"></path>
							</g>
							</g>
							<g id="Group_66">
							<path id="x3C Path x3E  350" d="M 0.0203351 5.58674e-06L 0.844128 5.58674e-06C 0.844128 5.58674e-06 0.889912 -5.58879e-06 0.889912 0.045761C 0.889912 0.045761 0.889895 0.0915444 0.844128 0.0915444L 0.0203351 0.0915444C 0.0203351 0.0457778 -0.0254315 0.0457722 0.0203351 5.58674e-06C 0.0203351 5.58674e-06 -0.0254315 5.58674e-06 0.0203351 5.58674e-06Z" transform="translate(5.76428 9.84766)" fill="#FCD856"></path>
							</g>
							<g id="Group_67">
							<path id="x3C Path x3E  349" d="M 5.58674e-06 5.58674e-06L 0.869554 5.58674e-06C 0.869554 5.58674e-06 0.915338 -5.58879e-06 0.915338 0.045761C 0.915338 0.045761 0.915321 0.0915444 0.869554 0.0915444L 5.58674e-06 0.0915444C 5.58674e-06 0.0457778 5.58674e-06 0.0457722 5.58674e-06 5.58674e-06Z" transform="translate(5.73889 10.3057)" fill="#FCD856"></path>
							</g>
							<g id="Group_68">
							<path id="x3C Path x3E  348" d="M -5.58674e-06 -5.58674e-06L 0.778032 -5.58674e-06C 0.778032 -5.58674e-06 0.823788 1.11742e-05 0.823788 0.0457778C 0.823788 0.0457778 0.823799 0.0915332 0.778032 0.0915332L -5.58674e-06 0.0915332C -5.58674e-06 0.0915332 -5.58674e-06 0.045761 -5.58674e-06 -5.58674e-06Z" transform="translate(5.78467 9.89355)" fill="#FCD856"></path>
							</g>
							<g id="Group_69">
							<g id="x3C Path x3E  347">
							<path id="Vector_63" d="M 0.228844 1.11735e-05L 0.228844 0.320355L 1.11735e-05 0.320355L 1.11735e-05 1.11735e-05L 0.228844 1.11735e-05Z" transform="translate(6.05933 9.48193)" fill="#FCD856"></path>
							</g>
							<g id="Group_70">
							<path id="x3C Path x3E  346" d="M 1.11735e-05 5.58674e-06L 0.0457666 5.58674e-06L 0.0457666 0.045761L 0.091522 0.045761L 0.091522 5.58674e-06L 0.137305 5.58674e-06L 0.137305 0.045761L 0.183061 0.045761L 0.183061 5.58674e-06L 0.228844 5.58674e-06L 0.228844 0.0915444C 0.228844 0.0915444 0.228827 0.1373 0.183061 0.1373L 0.0457666 0.1373C 0.0457666 0.1373 1.11735e-05 0.137311 1.11735e-05 0.0915444L 1.11735e-05 5.58674e-06Z" transform="translate(6.05933 9.39014)" fill="#FCD856"></path>
							</g>
							<g id="Group_71">
							<path id="x3C Path x3E  345" d="M 0.0915332 0L 0.137289 0L 0.137289 0.0457554L 0.183072 0.0457554L 0.183072 0L 0.228827 0L 0.228827 0.0457554L 0.274611 0.0457554L 0.274611 0L 0.320366 0L 0.320366 0.0915388C 0.320366 0.0915388 0.320377 0.137294 0.274611 0.137294L 0.0457778 0.137294C 0.0457778 0.137294 -5.58674e-06 0.137305 -5.58674e-06 0.0915388L -5.58674e-06 0L 0.0915332 0Z" transform="translate(6.24231 9.52734)" fill="#FCD856"></path>
							</g>
							<g id="x3C Path x3E  344">
							<path id="Vector_64" d="M 0.183066 -5.58674e-06L 0.183066 0.183072L -1.11735e-05 0.183072L -1.11735e-05 -5.58674e-06L 0.183066 -5.58674e-06Z" transform="translate(6.37964 9.66455)" fill="#FCD856"></path>
							</g>
							<g id="Group_72">
							<path id="x3C Path x3E  343" d="M 0.0915276 0L 0.137311 0L 0.137311 0.0457554L 0.183066 0.0457554L 0.183066 0L 0.228822 0L 0.228822 0.0457554L 0.274605 0.0457554L 0.274605 0L 0.320361 0L 0.320361 0.0915388C 0.320361 0.0915388 0.320372 0.137294 0.274605 0.137294L 0.0457722 0.137294C 0.0457722 0.137294 -1.11735e-05 0.137305 -1.11735e-05 0.0915388L -1.11735e-05 0L 0.0915276 0Z" transform="translate(5.69312 9.52734)" fill="#FCD856"></path>
							</g>
							<g id="x3C Path x3E  342">
							<path id="Vector_65" d="M 0.183061 -5.58674e-06L 0.183061 0.183072L 1.11735e-05 0.183072L 1.11735e-05 -5.58674e-06L 0.183061 -5.58674e-06Z" transform="translate(5.83044 9.66455)" fill="#FCD856"></path>
							</g>
							</g>
							</g>
							<g id="Group_73">
							<g id="Group_74">
							<path id="x3C Path x3E  341" d="M 5.58674e-06 0.320366L 0.823799 0.320366L 0.778043 -5.58674e-06L 0.045761 -5.58674e-06L 5.58674e-06 0.320366Z" transform="translate(8.02722 7.60498)" fill="#FCD856"></path>
							</g>
							<g id="Group_75">
							<g id="Group_76">
							<path id="Vector_66" d="M 0.183055 -5.58674e-06C 0.274588 -5.58674e-06 0.366122 0.183078 0.411888 0.274611L 5.58674e-06 0.274611C 5.58674e-06 0.183078 0.091522 -5.58674e-06 0.183055 -5.58674e-06Z" transform="translate(8.2561 7.60498)" fill="#FCD856"></path>
							</g>
							<g id="Group_77">
							<path id="x3C Path x3E  340" d="M 0.091522 0C 0.091522 0 0.228844 0.0457666 0.228844 0.228833C 0.0915444 0.228833 0.0915444 0.228833 1.11735e-05 0.228833C 1.11735e-05 0.0457666 0.091522 0 0.091522 0Z" transform="translate(8.34766 7.69678)" fill="#FCD856"></path>
							</g>
							</g>
							<g id="Group_78">
							<path id="x3C Path x3E  339" d="M 5.58674e-06 0L 0.823799 0C 0.823799 0 0.869554 -1.11742e-05 0.869554 0.0457554C 0.869554 0.0457554 0.869565 0.0915388 0.823799 0.0915388L 5.58674e-06 0.0915388C 5.58674e-06 0.0457722 5.58674e-06 0.0457666 5.58674e-06 0Z" transform="translate(8.02722 7.46777)" fill="#FCD856"></path>
							</g>
							<g id="Group_79">
							<path id="x3C Path x3E  338" d="M 0.0343305 0L 0.903879 0C 0.903879 0 0.949663 -1.11742e-05 0.949663 0.0457554C 0.949663 0.0457554 0.949646 0.0915388 0.903879 0.0915388L 0.0343305 0.0915388C -0.0114361 0.0457722 -0.0114361 0.0457666 0.0343305 0C -0.0114361 0 -0.0114361 0 0.0343305 0Z" transform="translate(7.99292 7.92529)" fill="#FCD856"></path>
							</g>
							<g id="Group_80">
							<path id="x3C Path x3E  337" d="M 0.0343194 -1.11735e-05L 0.812357 -1.11735e-05C 0.812357 -1.11735e-05 0.858113 5.58538e-06 0.858113 0.0457722C 0.858113 0.0457722 0.858124 0.0915276 0.812357 0.0915276L 0.0343194 0.0915276C -0.0114472 0.0915276 -0.0114472 0.091522 0.0343194 -1.11735e-05C -0.0114472 -1.11735e-05 -0.0114472 0.0457554 0.0343194 -1.11735e-05Z" transform="translate(8.0387 7.51367)" fill="#FCD856"></path>
							</g>
							<g id="Group_81">
							<g id="x3C Path x3E  336">
							<path id="Vector_67" d="M 0.228827 -5.58674e-06L 0.228827 0.320366L -5.58674e-06 0.320366L -5.58674e-06 -5.58674e-06L 0.228827 -5.58674e-06Z" transform="translate(8.30176 7.14746)" fill="#FCD856"></path>
							</g>
							<g id="Group_82">
							<path id="x3C Path x3E  335" d="M 0.0915276 0L 0.137311 0L 0.137311 0.0457554L 0.183066 0.0457554L 0.183066 0L 0.228822 0L 0.228822 0.0457554L 0.274605 0.0457554L 0.274605 0L 0.320361 0L 0.320361 0.0915388C 0.320361 0.0915388 0.320372 0.137294 0.274605 0.137294L 0.0457722 0.137294C 0.0457722 0.137294 -1.11735e-05 0.137305 -1.11735e-05 0.0915388L -1.11735e-05 0L 0.0915276 0Z" transform="translate(8.21033 7.01025)" fill="#FCD856"></path>
							</g>
							<g id="Group_83">
							<path id="x3C Path x3E  334" d="M 0.0915444 -5.58674e-06L 0.1373 -5.58674e-06L 0.1373 0.0457778L 0.183055 0.0457778L 0.183055 -5.58674e-06L 0.228839 -5.58674e-06L 0.228839 0.0457778L 0.274594 0.0457778L 0.274594 -5.58674e-06L 0.320377 -5.58674e-06L 0.320377 0.0915332C 0.320377 0.0915332 0.320361 0.137289 0.274594 0.137289L 0.045761 0.137289C 0.045761 0.137289 5.58674e-06 0.1373 5.58674e-06 0.0915332L 5.58674e-06 -5.58674e-06L 0.0915444 -5.58674e-06Z" transform="translate(8.48486 7.14746)" fill="#FCD856"></path>
							</g>
							<g id="x3C Path x3E  333">
							<path id="Vector_68" d="M 0.228844 -1.11735e-05L 0.228844 0.183066L 1.11735e-05 0.183066L 1.11735e-05 -1.11735e-05L 0.228844 -1.11735e-05Z" transform="translate(8.57642 7.28467)" fill="#FCD856"></path>
							</g>
							<g id="Group_84">
							<path id="x3C Path x3E  332" d="M 0.0915388 -5.58674e-06L 0.137294 -5.58674e-06L 0.137294 0.0457778L 0.183078 0.0457778L 0.183078 -5.58674e-06L 0.228833 -5.58674e-06L 0.228833 0.0457778L 0.274588 0.0457778L 0.274588 -5.58674e-06L 0.320372 -5.58674e-06L 0.320372 0.0915332C 0.320372 0.0915332 0.320355 0.137289 0.274588 0.137289L 0.0457554 0.137289C 0.0457554 0.137289 0 0.1373 0 0.0915332L 0 -5.58674e-06L 0.0915388 -5.58674e-06Z" transform="translate(7.93567 7.14746)" fill="#FCD856"></path>
							</g>
							<g id="x3C Path x3E  331">
							<path id="Vector_69" d="M 0.183072 -1.11735e-05L 0.183072 0.183066L -5.58674e-06 0.183066L -5.58674e-06 -1.11735e-05L 0.183072 -1.11735e-05Z" transform="translate(8.073 7.28467)" fill="#FCD856"></path>
							</g>
							</g>
							</g>
							<g id="Group_85">
							<g id="Group_86">
							<path id="x3C Path x3E  330" d="M -5.58674e-06 0.320366L 0.823788 0.320366L 0.778032 -5.58674e-06L 0.0457778 -5.58674e-06L -5.58674e-06 0.320366Z" transform="translate(5.78467 7.60498)" fill="#FCD856"></path>
							</g>
							<g id="Group_87">
							<g id="Group_88">
							<path id="Vector_70" d="M 0.194977 -5.58674e-06C 0.28651 -5.58674e-06 0.378044 0.183078 0.42381 0.274611L 0.0118997 0.274611C -0.0338669 0.183078 0.0576774 -5.58674e-06 0.194977 -5.58674e-06Z" transform="translate(6.00159 7.60498)" fill="#FCD856"></path>
							</g>
							<g id="Group_89">
							<path id="x3C Path x3E  329" d="M 0.100879 0C 0.100879 0 0.238173 0.0457666 0.238173 0.228833C 0.100873 0.228833 0.100873 0.228833 0.00934012 0.228833C -0.0364265 0.0457666 0.100879 0 0.100879 0Z" transform="translate(6.0957 7.69678)" fill="#FCD856"></path>
							</g>
							</g>
							<g id="Group_90">
							<path id="x3C Path x3E  328" d="M 0.0203351 0L 0.844128 0C 0.844128 0 0.889912 -1.11742e-05 0.889912 0.0457554C 0.889912 0.0457554 0.889895 0.0915388 0.844128 0.0915388L 0.0203351 0.0915388C 0.0203351 0.0457722 -0.0254315 0.0457666 0.0203351 0C 0.0203351 0 -0.0254315 0 0.0203351 0Z" transform="translate(5.76428 7.46777)" fill="#FCD856"></path>
							</g>
							<g id="Group_91">
							<path id="x3C Path x3E  327" d="M 5.58674e-06 0L 0.869554 0C 0.869554 0 0.915338 -1.11742e-05 0.915338 0.0457554C 0.915338 0.0457554 0.915321 0.0915388 0.869554 0.0915388L 5.58674e-06 0.0915388C 5.58674e-06 0.0457722 5.58674e-06 0.0457666 5.58674e-06 0Z" transform="translate(5.73889 7.92529)" fill="#FCD856"></path>
							</g>
							<g id="Group_92">
							<path id="x3C Path x3E  326" d="M -5.58674e-06 -1.11735e-05L 0.778032 -1.11735e-05C 0.778032 -1.11735e-05 0.823788 5.58538e-06 0.823788 0.0457722C 0.823788 0.0457722 0.823799 0.0915276 0.778032 0.0915276L -5.58674e-06 0.0915276C -5.58674e-06 0.0915276 -5.58674e-06 0.091522 -5.58674e-06 -1.11735e-05C -5.58674e-06 -1.11735e-05 -5.58674e-06 0.0457554 -5.58674e-06 -1.11735e-05Z" transform="translate(5.78467 7.51367)" fill="#FCD856"></path>
							</g>
							<g id="Group_93">
							<g id="x3C Path x3E  325">
							<path id="Vector_71" d="M 0.228844 -5.58674e-06L 0.228844 0.320366L 1.11735e-05 0.320366L 1.11735e-05 -5.58674e-06L 0.228844 -5.58674e-06Z" transform="translate(6.05933 7.14746)" fill="#FCD856"></path>
							</g>
							<g id="Group_94">
							<path id="x3C Path x3E  324" d="M 1.11735e-05 0L 0.0457666 0L 0.0457666 0.0457554L 0.091522 0.0457554L 0.091522 0L 0.137305 0L 0.137305 0.0457554L 0.183061 0.0457554L 0.183061 0L 0.228844 0L 0.228844 0.0915388C 0.228844 0.0915388 0.228827 0.137294 0.183061 0.137294L 0.0457666 0.137294C 0.0457666 0.137294 1.11735e-05 0.137305 1.11735e-05 0.0915388L 1.11735e-05 0Z" transform="translate(6.05933 7.01025)" fill="#FCD856"></path>
							</g>
							<g id="Group_95">
							<path id="x3C Path x3E  323" d="M 0.0915332 -5.58674e-06L 0.137289 -5.58674e-06L 0.137289 0.0457778L 0.183072 0.0457778L 0.183072 -5.58674e-06L 0.228827 -5.58674e-06L 0.228827 0.0457778L 0.274611 0.0457778L 0.274611 -5.58674e-06L 0.320366 -5.58674e-06L 0.320366 0.0915332C 0.320366 0.0915332 0.320377 0.137289 0.274611 0.137289L 0.0457778 0.137289C 0.0457778 0.137289 -5.58674e-06 0.1373 -5.58674e-06 0.0915332L -5.58674e-06 -5.58674e-06L 0.0915332 -5.58674e-06Z" transform="translate(6.24231 7.14746)" fill="#FCD856"></path>
							</g>
							<g id="x3C Path x3E  322">
							<path id="Vector_72" d="M 0.183066 -1.11735e-05L 0.183066 0.183066L -1.11735e-05 0.183066L -1.11735e-05 -1.11735e-05L 0.183066 -1.11735e-05Z" transform="translate(6.37964 7.28467)" fill="#FCD856"></path>
							</g>
							<g id="Group_96">
							<path id="x3C Path x3E  321" d="M 0.0915276 -5.58674e-06L 0.137311 -5.58674e-06L 0.137311 0.0457778L 0.183066 0.0457778L 0.183066 -5.58674e-06L 0.228822 -5.58674e-06L 0.228822 0.0457778L 0.274605 0.0457778L 0.274605 -5.58674e-06L 0.320361 -5.58674e-06L 0.320361 0.0915332C 0.320361 0.0915332 0.320372 0.137289 0.274605 0.137289L 0.0457722 0.137289C 0.0457722 0.137289 -1.11735e-05 0.1373 -1.11735e-05 0.0915332L -1.11735e-05 -5.58674e-06L 0.0915276 -5.58674e-06Z" transform="translate(5.69312 7.14746)" fill="#FCD856"></path>
							</g>
							<g id="x3C Path x3E  320">
							<path id="Vector_73" d="M 0.183061 -1.11735e-05L 0.183061 0.183066L 1.11735e-05 0.183066L 1.11735e-05 -1.11735e-05L 0.183061 -1.11735e-05Z" transform="translate(5.83044 7.28467)" fill="#FCD856"></path>
							</g>
							</g>
							</g>
							<g id="Group_97">
							<g id="Group_98">
							<path id="x3C Path x3E  319" d="M 0.183078 0.778032L 0.778038 0.183072L 0.549205 -5.58674e-06L 0 0.549199L 0.183078 0.778032Z" transform="translate(6.56262 11.9531)" fill="#FCD856"></path>
							</g>
							<g id="Group_99">
							<g id="Group_100">
							<path id="Vector_74" d="M 0.0476098 0.0499045C 0.139143 -0.0416287 0.322232 0.00412677 0.413765 0.09566L 0.139149 0.370248C 0.00184879 0.324482 -0.0439234 0.141438 0.0476098 0.0499045Z" transform="translate(6.78967 12.1777)" fill="#FCD856"></path>
							</g>
							<g id="Group_101">
							<path id="x3C Path x3E  318" d="M 0.0114472 0.00732266C 0.0114472 0.00732266 0.148747 -0.0384384 0.24028 0.0988614C 0.148747 0.190395 0.148736 0.190378 0.0572027 0.281911C -0.0343305 0.144611 0.0114472 0.00732266 0.0114472 0.00732266Z" transform="translate(6.87158 12.2661)" fill="#FCD856"></path>
							</g>
							</g>
							<g id="Group_102">
							<path id="x3C Path x3E  317" d="M 0.0203463 0.549194L 0.569551 -1.11735e-05L 0.615306 -1.11735e-05L 0.615306 0.0457722L 0.0661017 0.594977L 0.0203463 0.594977C 0.0203463 0.54921 -0.0254203 0.549194 0.0203463 0.549194Z" transform="translate(6.40503 11.8613)" fill="#FCD856"></path>
							</g>
							<g id="Group_103">
							<path id="x3C Path x3E  316" d="M 0.0343361 0.594966L 0.629296 5.58674e-06L 0.675052 5.58674e-06L 0.675052 0.045761L 0.0800916 0.640721L 0.0343361 0.640721C -0.0114305 0.640721 -0.0114305 0.594966 0.0343361 0.594966Z" transform="translate(6.71143 12.1362)" fill="#FCD856"></path>
							</g>
							<g id="Group_104">
							<path id="x3C Path x3E  315" d="M -5.58674e-06 0.54921L 0.549199 5.58674e-06L 0.594955 5.58674e-06L 0.594955 0.045761L 0.0457778 0.594966C 0.0457778 0.594966 0.045761 0.594977 -5.58674e-06 0.54921Z" transform="translate(6.47107 11.9072)" fill="#FCD856"></path>
							</g>
							<g id="Group_105">
							<g id="x3C Path x3E  314">
							<path id="Vector_75" d="M 0.137311 0L 0.366144 0.228833L 0.228822 0.366127L -1.11735e-05 0.137294L 0.137311 0Z" transform="translate(6.37952 11.8159)" fill="#FCD856"></path>
							</g>
							<g id="Group_106">
							<path id="x3C Path x3E  313" d="M 1.11735e-05 0.228822L 0.091522 0.228822L 0.137305 0.183066L 0.091522 0.137311L 0.137305 0.0915276L 0.183061 0.137311L 0.228844 0.0915276L 0.183061 0.0457722L 0.228844 -1.11735e-05L 0.320355 0.0915276L 0.320355 0.137311L 0.183061 0.274605L 0.137305 0.274605L 1.11735e-05 0.228822Z" transform="translate(6.28809 11.6328)" fill="#FCD856"></path>
							</g>
							<g id="Group_107">
							<path id="x3C Path x3E  312" d="M 0 0.228833L 0.0915388 0.228833L 0.137294 0.183078L 0.0915388 0.137294L 0.137294 0.0915388L 0.183078 0.137294L 0.228833 0.0915388L 0.183078 0.0457554L 0.228833 0L 0.320372 0.0915388L 0.320372 0.137294L 0.183078 0.274588L 0.137294 0.274588L 0 0.228833Z" transform="translate(6.56262 11.5869)" fill="#FCD856"></path>
							</g>
							<g id="x3C Path x3E  311">
							<path id="Vector_76" d="M 0.137289 -5.58674e-06L 0.274611 0.137289L 0.137289 0.274611L -5.58674e-06 0.137289L 0.137289 -5.58674e-06Z" transform="translate(6.69995 11.7241)" fill="#FCD856"></path>
							</g>
							<g id="Group_108">
							<path id="x3C Path x3E  310" d="M 5.58674e-06 0.228827L 0.0915444 0.228827L 0.1373 0.183072L 0.0915444 0.137289L 0.1373 0.0915332L 0.183055 0.137289L 0.228839 0.0915332L 0.183055 0.0457778L 0.228839 -5.58674e-06L 0.320377 0.0915332L 0.320377 0.137289L 0.183055 0.274611L 0.1373 0.274611L 5.58674e-06 0.228827Z" transform="translate(6.19653 11.9531)" fill="#FCD856"></path>
							</g>
							<g id="x3C Path x3E  309">
							<path id="Vector_77" d="M 0.137294 -1.11735e-05L 0.274588 0.137311L 0.137294 0.274605L 0 0.137311L 0.137294 -1.11735e-05Z" transform="translate(6.33374 12.0903)" fill="#FCD856"></path>
							</g>
							</g>
							</g>
							<g id="Group_109">
							<g id="Group_110">
							<path id="x3C Path x3E  308" d="M -1.11735e-05 0.183072L 0.594977 0.778032L 0.778027 0.549199L 0.228822 -5.58674e-06L -1.11735e-05 0.183072Z" transform="translate(9.58325 11.9531)" fill="#FCD856"></path>
							</g>
							<g id="Group_111">
							<g id="Group_112">
							<path id="Vector_78" d="M 0.320372 0.0476322C 0.411905 0.139165 0.366122 0.322226 0.274588 0.413759L 0 0.139143C 0.0915332 0.0018432 0.228839 -0.043901 0.320372 0.0476322Z" transform="translate(9.76636 12.1797)" fill="#FCD856"></path>
							</g>
							<g id="Group_113">
							<path id="x3C Path x3E  307" d="M 0.274588 0.0114417C 0.274588 0.0114417 0.320377 0.148741 0.183078 0.240275C 0.0915444 0.148741 0.0915332 0.14873 0 0.0571971C 0.1373 -0.0343361 0.274588 0.0114417 0.274588 0.0114417Z" transform="translate(9.76636 12.2612)" fill="#FCD856"></path>
							</g>
							</g>
							<g id="Group_114">
							<path id="x3C Path x3E  306" d="M 0.045761 0L 0.594966 0.549205L 0.594966 0.59496L 0.54921 0.59496L 5.58674e-06 0.0457554C 5.58674e-06 0.0457554 -5.58879e-06 0.0457666 0.045761 0Z" transform="translate(9.85779 11.8154)" fill="#FCD856"></path>
							</g>
							<g id="Group_115">
							<path id="x3C Path x3E  305" d="M 0.0457554 5.58674e-06L 0.640744 0.594966L 0.640744 0.640721L 0.59496 0.640721L 0 0.045761L 0 5.58674e-06L 0.0457554 5.58674e-06Z" transform="translate(9.53748 12.1357)" fill="#FCD856"></path>
							</g>
							<g id="Group_116">
							<path id="x3C Path x3E  304" d="M 0.075823 0.0343305L 0.625028 0.583535L 0.625028 0.629291L 0.579272 0.629291L 0.0300676 0.080086C -0.015699 0.0343194 -0.0157102 0.0343305 0.075823 0.0343305C 0.0300564 -0.0114361 0.0300564 -0.0114361 0.075823 0.0343305Z" transform="translate(9.82776 11.8726)" fill="#FCD856"></path>
							</g>
							<g id="Group_117">
							<g id="x3C Path x3E  303">
							<path id="Vector_79" d="M 0.366122 0.137294L 0.137289 0.366127L -5.58674e-06 0.228833L 0.228827 0L 0.366122 0.137294Z" transform="translate(10.1324 11.8154)" fill="#FCD856"></path>
							</g>
							<g id="Group_118">
							<path id="x3C Path x3E  302" d="M 0.0457666 5.58674e-06L 0.0457666 0.0915444L 0.091522 0.1373L 0.137305 0.0915444L 0.183061 0.1373L 0.137305 0.183055L 0.183061 0.228839L 0.228844 0.183055L 0.2746 0.228839L 0.183061 0.320377L 0.137305 0.320377L 1.11735e-05 0.183055L 1.11735e-05 0.1373L 0.0457666 5.58674e-06Z" transform="translate(10.407 11.6782)" fill="#FCD856"></path>
							</g>
							<g id="Group_119">
							<path id="x3C Path x3E  301" d="M 0.0457554 1.11735e-05L 0.0457554 0.091522L 0.0915388 0.137305L 0.137294 0.091522L 0.183078 0.137305L 0.137294 0.183061L 0.183078 0.228844L 0.228833 0.183061L 0.274588 0.228844L 0.183078 0.320355L 0.137294 0.320355L 0 0.183061L 0 0.137305L 0.0457554 1.11735e-05Z" transform="translate(10.4528 11.9985)" fill="#FCD856"></path>
							</g>
							<g id="x3C Path x3E  300">
							<path id="Vector_80" d="M 0.274594 0.137311L 0.1373 0.274605L 5.58674e-06 0.137311L 0.1373 -1.11735e-05L 0.274594 0.137311Z" transform="translate(10.3154 12.0898)" fill="#FCD856"></path>
							</g>
							<g id="Group_120">
							<path id="x3C Path x3E  299" d="M 0.045761 -1.11735e-05L 0.045761 0.0915276L 0.0915444 0.137311L 0.1373 0.0915276L 0.183055 0.137311L 0.1373 0.183066L 0.183055 0.228822L 0.228839 0.183066L 0.274594 0.228822L 0.183055 0.320361L 0.1373 0.320361L 5.58674e-06 0.183066L 5.58674e-06 0.137311L 0.045761 -1.11735e-05Z" transform="translate(10.0867 11.6323)" fill="#FCD856"></path>
							</g>
							<g id="x3C Path x3E  298">
							<path id="Vector_81" d="M 0.2746 0.137289L 0.137305 0.274611L 1.11735e-05 0.137289L 0.137305 -5.58674e-06L 0.2746 0.137289Z" transform="translate(9.94934 11.7241)" fill="#FCD856"></path>
							</g>
							</g>
							</g>
							</g>
							</g>
							</g>
							</g>
							</g>
							</svg>