<svg width="21" height="21" viewBox="0 0 21 21" version="1.1" xmlns="http://www.w3.org/2000/svg" xmlns:xlink="http://www.w3.org/1999/xlink">
							<g id="Canvas" fill="none">
							<g id="Group">
							<g id="Group_2">
							<path id="Vector" d="M 9.06178 5.85811C 13.0892 5.85811 16.5675 3.47826 18.1693 -5.58674e-06L -2.79337e-06 -5.58674e-06C 1.55606 3.47826 5.03432 5.85811 9.06178 5.85811Z" transform="translate(1.25366 14.8945)" fill="#FF0000"></path>
							<path id="Vector_2" d="M 9.10755 1.11735e-05C 5.08009 1.11735e-05 1.60183 2.37987 1.39669e-06 5.85813L 18.1693 5.85813C 16.6133 2.37987 13.135 1.11735e-05 9.10755 1.11735e-05Z" transform="translate(1.20789 0.75293)" fill="white"></path>
							<path id="Vector_3" d="M 1.39669e-06 4.16475C 1.39669e-06 5.67505 0.320368 7.04807 0.915333 8.32953L 19.0847 8.32953C 19.6796 7.04807 20 5.62928 20 4.16475C 20 2.65446 19.6796 1.28147 19.0847 5.58674e-06L 0.915333 5.58674e-06C 0.320368 1.2357 1.39669e-06 2.65446 1.39669e-06 4.16475Z" transform="translate(0.292603 6.61084)" fill="#0000FF"></path>
							</g>
							</g>
							</g>
							</svg>