<svg width="21" height="21" viewBox="0 0 21 21" version="1.1" xmlns="http://www.w3.org/2000/svg" xmlns:xlink="http://www.w3.org/1999/xlink">
							<g id="Canvas" fill="none">
							<path id="Vector" fill-rule="evenodd" clip-rule="evenodd" d="M 20 11.1111L 20 8.60213L 17.9928 8.60213C 17.8494 7.38349 17.4194 6.23656 16.7742 5.30466L 18.0645 3.94264L 16.0574 1.93552L 14.552 3.15412C 13.6201 2.43728 12.4731 1.93548 11.2544 1.72043L 11.2544 -1.75011e-05L 8.74549 -1.75011e-05L 8.74549 1.72043C 7.52685 1.93548 6.37993 2.36563 5.37634 3.01079L 4.01432 1.7921L 2.0072 3.7993L 3.22581 5.51975C 2.50896 6.45165 2.07885 7.59858 1.79211 8.81722L 0 8.81722L 0 11.3262L 1.79211 11.3262C 2.00717 12.5448 2.43731 13.6201 3.08247 14.552L 1.72045 15.7706L 3.72756 17.7778L 5.51968 16.4874C 6.45158 17.1326 7.52686 17.6344 8.67382 17.8495L 8.67382 20L 11.1828 20L 11.1828 18.1362C 12.3297 17.9928 13.4767 17.276 14.4086 16.7025L 15.6273 18.0646L 17.6344 16.0573L 16.3441 14.4803C 17.061 13.5484 17.5628 12.4731 17.7778 11.3262L 20 11.3262L 20 11.1111ZM 9.82075 12.3298C 8.31538 12.3298 7.09679 11.1111 7.09679 9.6774C 7.09679 8.17203 8.31538 6.95344 9.82075 6.95344C 11.3261 6.95344 12.4731 8.17203 12.4731 9.6774C 12.5448 11.1111 11.3261 12.3298 9.82075 12.3298Z" transform="translate(0.203247 0.16748)" fill="#ffffff"></path>
							</g>
							</svg>