<svg width="15" height="15" viewBox="0 0 15 15" fill="none" xmlns="http://www.w3.org/2000/svg">
<path d="M14.1492 6.00889H12.0448C11.9105 5.6083 11.7313 5.25221 11.5522 4.89613L12.9403 3.51632C13.2537 3.20475 13.2537 2.67063 12.9403 2.35906L12.3582 1.7804C12.0448 1.46883 11.5075 1.46883 11.194 1.7804L9.80597 3.16024C9.44776 2.93769 8.99999 2.75963 8.55223 2.67061V0.845697C8.55223 0.400593 8.19403 -1.08668e-05 7.70149 -1.08668e-05H6.85075C6.40299 -1.08668e-05 6 0.356083 6 0.845697V2.67061C5.50747 2.80414 5.0597 2.98221 4.65672 3.24927L3.49254 2.09198C3.1791 1.78041 2.64179 1.78041 2.32836 2.09198L1.74627 2.67061C1.43284 2.98218 1.43284 3.51633 1.74627 3.8279L2.95522 5.02968C2.68656 5.47479 2.50747 5.96438 2.41791 6.45399H0.850749C0.402988 6.45399 5.46584e-06 6.81009 5.46584e-06 7.2997V8.14541C5.46584e-06 8.59052 0.358212 8.99109 0.850749 8.99109H2.50746C2.64179 9.48071 2.86567 9.97034 3.1791 10.3709L2.0597 11.4837C1.74626 11.7953 1.74626 12.3294 2.0597 12.6409L2.64179 13.2196C2.95523 13.5312 3.49254 13.5312 3.80598 13.2196L5.0597 11.9733C5.50746 12.1958 5.95523 12.3294 6.44776 12.4184V14.1543C6.44776 14.5994 6.80597 15 7.29851 15H8.14925C8.59701 15 8.99999 14.6439 8.99999 14.1543V12.1958C9.40298 12.0623 9.80597 11.8398 10.1642 11.6172L11.5075 12.9525C11.8209 13.2641 12.3582 13.2641 12.6716 12.9525L13.2537 12.3739C13.5672 12.0623 13.5672 11.5282 13.2537 11.2166L11.7761 9.74777C11.9552 9.39169 12.0895 8.99111 12.1791 8.59052H14.1492C14.597 8.59052 15 8.23442 15 7.74481V6.8991C14.9552 6.36497 14.597 6.00889 14.1492 6.00889ZM7.29851 9.52522C6.13433 9.52522 5.2388 8.59052 5.2388 7.47776C5.2388 6.32049 6.1791 5.43026 7.29851 5.43026C8.46269 5.43026 9.35821 6.365 9.35821 7.47776C9.35821 8.59052 8.41791 9.52522 7.29851 9.52522Z" fill="#636363"/>
</svg>
