<svg width="21" height="21" viewBox="0 0 21 21" version="1.1" xmlns="http://www.w3.org/2000/svg" xmlns:xlink="http://www.w3.org/1999/xlink">
							<g id="Canvas" fill="none">
							<g id="Group">
							<g id="Group_2">
							<path id="Vector" d="M 20 9.99998C 20 15.5251 15.5251 20 10 20C 4.4749 20 0 15.5251 0 9.99998C 0 4.47486 4.4749 -5.57399e-06 10 -5.57399e-06C 15.5251 0.0456565 20 4.47486 20 9.99998Z" transform="translate(0.29248 0.236328)" fill="#E30A17"></path>
							<g id="Group_3">
							<path id="Vector_2" d="M 5.61644 8.08217C 3.60731 8.08217 2.00913 6.43838 2.00913 4.47491C 2.00913 2.46578 3.65297 0.867591 5.61644 0.867591C 6.62101 0.867591 7.53424 1.27852 8.17351 1.91779C 7.35159 0.776233 6.0274 0 4.47489 0C 2.00914 0 1.1148e-05 2.00915 1.1148e-05 4.47491C 1.1148e-05 6.94066 2.00914 8.94976 4.47489 8.94976C 5.98174 8.94976 7.35159 8.17353 8.17351 7.03197C 7.48858 7.67124 6.57535 8.08217 5.61644 8.08217Z" transform="translate(3.21484 5.80713)" fill="white"></path>
							<path id="Vector_3" d="M 1.46119 0L 2.28311 1.1872L 3.69862 0.776233L 2.83106 1.96349L 3.65297 3.1507L 2.23745 2.69408L 1.36986 3.83563L 1.41551 2.37441L 0 1.87214L 1.41551 1.46116L 1.46119 0Z" transform="translate(11.708 8.31885)" fill="white"></path>
							</g>
							</g>
							</g>
							</g>
							</svg>