<svg width="22" height="16" viewBox="0 0 22 16" version="1.1" xmlns="http://www.w3.org/2000/svg" xmlns:xlink="http://www.w3.org/1999/xlink">
					<g id="Canvas" fill="none">
					<g id="Group">
					<g id="Group_2">
					<path id="Vector" d="M 8.23503 2.53862C 9.65913 2.53862 10.8975 3.03396 11.8882 3.9008L 13.3123 1.79561C 11.9501 0.681092 10.2164 0 8.23503 0C 3.71505 0 0 3.71505 0 8.23503C 0 8.4827 -5.99718e-08 8.73037 0.0619174 8.91612L 1.23835 10.8975L 2.60053 8.73037C 2.60053 8.54461 2.53862 8.42078 2.53862 8.23503C 2.53862 5.07723 5.13915 2.53862 8.23503 2.53862Z" transform="translate(2.70312 0.0126953)" fill="#636363"></path>
					<g id="Group_3">
					<g id="Group_4">
					<path id="Vector_2" d="M 0.630206 1.18098e-07C 0.0729483 1.18098e-07 -0.174722 0.371505 0.134866 0.866845L 2.54965 4.82956C 2.85924 5.3249 3.35458 5.3249 3.66416 4.82956L 6.20278 0.928763C 6.51237 0.433423 6.32661 0.0619173 5.70744 0.0619173L 0.630206 1.18098e-07Z" transform="translate(0.833984 8.24805)" fill="#636363"></path>
					</g>
					</g>
					<path id="Vector_3" d="M 5.07723 8.29694C 3.65313 8.29694 2.41478 7.8016 1.4241 6.93476L 1.18098e-07 9.03995C 1.4241 10.1545 3.15779 10.8356 5.07723 10.8356C 9.65913 10.8356 13.3123 7.12051 13.3123 2.60053C 13.3123 2.35286 13.3123 2.10519 13.2503 1.91944L 12.0739 1.18098e-07L 10.7117 2.16711C 10.7117 2.35286 10.7736 2.4767 10.7736 2.66245C 10.7736 5.69641 8.17311 8.29694 5.07723 8.29694Z" transform="translate(5.98438 5.15137)" fill="#636363"></path>
					<g id="Group_5">
					<g id="Group_6">
					<path id="Vector_4" d="M 5.71964 5.20107C 6.2769 5.20107 6.52457 4.82957 6.21498 4.33423L 3.8002 0.371505C 3.49061 -0.123835 2.99527 -0.123835 2.68568 0.371505L 0.147066 4.27231C -0.162522 4.76765 0.0232315 5.13915 0.642406 5.13915L 5.71964 5.20107Z" transform="translate(14.8145 2.55176)" fill="#636363"></path>
					</g>
					</g>
					</g>
					</g>
					</g>
					</svg>