<svg width="21" height="16" viewBox="0 0 21 16" fill="none" xmlns="http://www.w3.org/2000/svg">
<path fill-rule="evenodd" clip-rule="evenodd" d="M12.8419 11.6485C11.9472 11.1748 10.6314 10.1222 8.68406 9.75382C9.15774 9.17488 9.52615 8.28016 9.9472 7.22754C10.1577 6.59598 10.1051 6.06967 10.1051 5.33284C10.1051 4.7539 10.2104 3.91181 10.0525 3.38551C9.63141 1.75396 8.52617 1.28028 7.26303 1.28028C5.9999 1.28028 4.89465 1.75396 4.47361 3.38551C4.36835 3.91181 4.42098 4.7539 4.42098 5.33284C4.42098 6.06967 4.36835 6.59598 4.6315 7.22754C4.99991 8.28016 5.36833 9.17488 5.89464 9.75382C3.9473 10.1222 2.63153 11.2275 1.78944 11.6485C0 12.5432 0 13.4906 0 13.4906V13.859C0 14.4906 0.684199 15.1221 1.3684 15.1221H13.3682C14.2103 15.1221 14.7366 14.4379 14.7366 13.8064V13.4906C14.684 13.4906 14.684 12.5432 12.8419 11.6485Z" fill="#636363"/>
<path d="M19.767 3.20475H18.6446C18.5729 2.9911 18.4774 2.80119 18.3819 2.61128L19.1222 1.87538C19.2894 1.7092 19.2894 1.42434 19.1222 1.25817L18.8117 0.949555C18.6446 0.783383 18.358 0.783383 18.1909 0.949555L17.4506 1.68547C17.2595 1.56677 17.0207 1.47181 16.7819 1.42433V0.451044C16.7819 0.213656 16.5908 0 16.3282 0H15.8744C15.6356 0 15.4207 0.189917 15.4207 0.451044V1.42433C15.158 1.49555 14.9192 1.59052 14.7043 1.73295L14.0834 1.11573C13.9162 0.949558 13.6297 0.949558 13.4625 1.11573L13.152 1.42433C12.9849 1.5905 12.9849 1.87538 13.152 2.04155L13.7968 2.6825C13.6535 2.91989 13.558 3.18101 13.5103 3.44214H12.6744C12.4356 3.44214 12.2207 3.63205 12.2207 3.89318V4.34422C12.2207 4.58161 12.4117 4.79525 12.6744 4.79525H13.558C13.6297 5.05638 13.7491 5.31752 13.9162 5.53117L13.3192 6.12464C13.152 6.29081 13.152 6.57567 13.3192 6.74185L13.6297 7.05045C13.7968 7.21662 14.0834 7.21662 14.2506 7.05045L14.9192 6.38576C15.158 6.50446 15.3968 6.57567 15.6595 6.62315V7.54897C15.6595 7.78636 15.8506 8 16.1132 8H16.567C16.8058 8 17.0207 7.8101 17.0207 7.54897V6.50446C17.2356 6.43324 17.4506 6.31455 17.6416 6.19585L18.358 6.90802C18.5252 7.07419 18.8117 7.07419 18.9789 6.90802L19.2894 6.59942C19.4565 6.43325 19.4565 6.14837 19.2894 5.9822L18.5013 5.19882C18.5968 5.00891 18.6685 4.79526 18.7162 4.58161H19.767C20.0058 4.58161 20.2207 4.3917 20.2207 4.13057V3.67952C20.1968 3.39466 20.0058 3.20475 19.767 3.20475ZM16.1132 5.08012C15.4923 5.08012 15.0147 4.58161 15.0147 3.98814C15.0147 3.37093 15.5162 2.89615 16.1132 2.89615C16.7341 2.89615 17.2117 3.39467 17.2117 3.98814C17.2117 4.58161 16.7103 5.08012 16.1132 5.08012Z" fill="#636363"/>
</svg>
